<svg xmlns="http://www.w3.org/2000/svg" xmlns:xlink="http://www.w3.org/1999/xlink" width="11272pt" height="1128pt" viewBox="0.00 0.00 11271.50 1128.00">
<g id="graph0" class="graph" transform="scale(1 1) rotate(0) translate(4 1124)">
<title>polars_query</title>
<polygon fill="white" stroke="transparent" points="-4,4 -4,-1124 11267.5,-1124 11267.5,4 -4,4"/>
<!-- p1 -->
<g id="node1" class="node">
<title>p1</title>
<polygon fill="none" stroke="black" points="5509.5,-1120 5333.5,-1120 5333.5,-1067 5509.5,-1067 5509.5,-1120"/>
<text text-anchor="middle" x="5421.5" y="-1104.8" font-family="Times,serif" font-size="14.00">JOIN INNER</text>
<text text-anchor="middle" x="5421.5" y="-1089.8" font-family="Times,serif" font-size="14.00">left: [col(&quot;ModelID&quot;)];</text>
<text text-anchor="middle" x="5421.5" y="-1074.8" font-family="Times,serif" font-size="14.00">right: [col(&quot;ModelID&quot;)]</text>
</g>
<!-- p2 -->
<g id="node2" class="node">
<title>p2</title>
<polygon fill="none" stroke="black" points="5580,-950.5 4737,-950.5 4737,-914.5 5580,-914.5 5580,-950.5"/>
<text text-anchor="middle" x="5158.5" y="-928.8" font-family="Times,serif" font-size="14.00">FILTER BY [(col(&quot;SnapshotTime&quot;).fill_null_with_strategy()) == (col(&quot;SnapshotTime&quot;).fill_null_with_strategy().max())]</text>
</g>
<!-- p1&#45;&#45;p2 -->
<g id="edge1" class="edge">
<title>p1--p2</title>
<path fill="none" stroke="black" d="M5333.23,-1074.97C5300.23,-1065.57 5263.71,-1051.55 5234.5,-1031 5204.14,-1009.63 5180.1,-972.62 5167.71,-950.86"/>
</g>
<!-- p12 -->
<g id="node13" class="node">
<title>p12</title>
<polygon fill="none" stroke="black" points="6087,-1031 5244,-1031 5244,-995 6087,-995 6087,-1031"/>
<text text-anchor="middle" x="5665.5" y="-1009.3" font-family="Times,serif" font-size="14.00">FILTER BY [(col(&quot;SnapshotTime&quot;).fill_null_with_strategy()) == (col(&quot;SnapshotTime&quot;).fill_null_with_strategy().max())]</text>
</g>
<!-- p1&#45;&#45;p12 -->
<g id="edge12" class="edge">
<title>p1--p12</title>
<path fill="none" stroke="black" d="M5501.06,-1066.9C5537.63,-1055.14 5580.02,-1041.5 5612.6,-1031.02"/>
</g>
<!-- c0 -->
<g id="node3" class="node">
<title>c0</title>
<polygon fill="none" stroke="black" points="5224.5,-722 5092.5,-722 5092.5,-686 5224.5,-686 5224.5,-722"/>
<text text-anchor="middle" x="5158.5" y="-700.3" font-family="Times,serif" font-size="14.00">CACHE: 1 times</text>
</g>
<!-- p2&#45;&#45;c0 -->
<g id="edge2" class="edge">
<title>p2--c0</title>
<path fill="none" stroke="black" d="M5158.5,-914.48C5158.5,-872.5 5158.5,-764.4 5158.5,-722.22"/>
</g>
<!-- p3 -->
<g id="node4" class="node">
<title>p3</title>
<polygon fill="none" stroke="black" points="5359,-650 4958,-650 4958,-612 5359,-612 5359,-650"/>
<text text-anchor="middle" x="5158.5" y="-634.8" font-family="Times,serif" font-size="14.00">simple π 15/15</text>
<text text-anchor="middle" x="5158.5" y="-619.8" font-family="Times,serif" font-size="14.00">[&quot;Treatment&quot;, &quot;ResponseCount&quot;, ... 13 other columns]</text>
</g>
<!-- c0&#45;&#45;p3 -->
<g id="edge3" class="edge">
<title>c0--p3</title>
<path fill="none" stroke="black" d="M5158.5,-685.81C5158.5,-674.98 5158.5,-661.01 5158.5,-650.02"/>
</g>
<!-- p22 -->
<g id="node23" class="node">
<title>p22</title>
<polygon fill="none" stroke="black" points="4111,-650 3710,-650 3710,-612 4111,-612 4111,-650"/>
<text text-anchor="middle" x="3910.5" y="-634.8" font-family="Times,serif" font-size="14.00">simple π 15/15</text>
<text text-anchor="middle" x="3910.5" y="-619.8" font-family="Times,serif" font-size="14.00">[&quot;Treatment&quot;, &quot;ResponseCount&quot;, ... 13 other columns]</text>
</g>
<!-- c0&#45;&#45;p22 -->
<g id="edge23" class="edge">
<title>c0--p22</title>
<path fill="none" stroke="black" d="M5092.28,-699.23C4910.43,-688.89 4397.83,-659.72 4111.07,-643.41"/>
</g>
<!-- p4 -->
<g id="node5" class="node">
<title>p4</title>
<polygon fill="none" stroke="black" points="6073.5,-576 5695.5,-576 5695.5,-540 6073.5,-540 6073.5,-576"/>
<text text-anchor="middle" x="5884.5" y="-554.3" font-family="Times,serif" font-size="14.00">FILTER BY col(&quot;Name&quot;).str.contains([String(Visa)])</text>
</g>
<!-- p3&#45;&#45;p4 -->
<g id="edge4" class="edge">
<title>p3--p4</title>
<path fill="none" stroke="black" d="M5342.64,-611.99C5455.64,-600.94 5599.48,-586.87 5710.55,-576.01"/>
</g>
<!-- p5 -->
<g id="node6" class="node">
<title>p5</title>
<polygon fill="none" stroke="black" points="6812,-496.5 6411,-496.5 6411,-458.5 6812,-458.5 6812,-496.5"/>
<text text-anchor="middle" x="6611.5" y="-481.3" font-family="Times,serif" font-size="14.00">simple π 15/16</text>
<text text-anchor="middle" x="6611.5" y="-466.3" font-family="Times,serif" font-size="14.00">[&quot;Treatment&quot;, &quot;ResponseCount&quot;, ... 13 other columns]</text>
</g>
<!-- p4&#45;&#45;p5 -->
<g id="edge5" class="edge">
<title>p4--p5</title>
<path fill="none" stroke="black" d="M6042.25,-539.97C6161.06,-527.14 6323.6,-509.59 6444.58,-496.52"/>
</g>
<!-- p6 -->
<g id="node7" class="node">
<title>p6</title>
<polygon fill="none" stroke="black" points="9916,-415 4967,-415 4967,-379 9916,-379 9916,-415"/>
<text text-anchor="middle" x="7441.5" y="-393.3" font-family="Times,serif" font-size="14.00">WITH COLUMNS [when([(col(&quot;__POLARS_CSER_0x9cffb76be0071622&quot;).is_not_nan()) | (col(&quot;__POLARS_CSER_0x9cffb76be0071622&quot;).is_null())]).then(col(&quot;__POLARS_CSER_0x9cffb76be0071622&quot;)).otherwise(0.0).alias(&quot;SuccessRate&quot;), when([(col(&quot;Positives&quot;).min()) == (col(&quot;Positives&quot;).max())]).then(col(&quot;SnapshotTime&quot;).max()).otherwise(col(&quot;SnapshotTime&quot;).filter([(col(&quot;Positives&quot;).diff()) != (0.0)]).max()).over([col(&quot;ModelID&quot;)]).alias(&quot;Last_Positives&quot;), when([(col(&quot;ResponseCount&quot;).min()) == (col(&quot;ResponseCount&quot;).max())]).then(col(&quot;SnapshotTime&quot;).max()).otherwise(col(&quot;SnapshotTime&quot;).filter([(col(&quot;ResponseCount&quot;).diff()) != (0.0)]).max()).over([col(&quot;ModelID&quot;)]).alias(&quot;Last_ResponseCount&quot;)]</text>
</g>
<!-- p5&#45;&#45;p6 -->
<g id="edge6" class="edge">
<title>p5--p6</title>
<path fill="none" stroke="black" d="M6801.92,-458.49C6940.12,-445.42 7125.86,-427.85 7261.57,-415.02"/>
</g>
<!-- p7 -->
<g id="node8" class="node">
<title>p7</title>
<polygon fill="none" stroke="black" points="7843,-343 7040,-343 7040,-307 7843,-307 7843,-343"/>
<text text-anchor="middle" x="7441.5" y="-321.3" font-family="Times,serif" font-size="14.00">WITH COLUMNS [[(col(&quot;Positives&quot;)) / (col(&quot;ResponseCount&quot;))].alias(&quot;__POLARS_CSER_0x9cffb76be0071622&quot;)]</text>
</g>
<!-- p6&#45;&#45;p7 -->
<g id="edge7" class="edge">
<title>p6--p7</title>
<path fill="none" stroke="black" d="M7441.5,-378.7C7441.5,-367.85 7441.5,-353.92 7441.5,-343.1"/>
</g>
<!-- p8 -->
<g id="node9" class="node">
<title>p8</title>
<polygon fill="none" stroke="black" points="9846.5,-271 5036.5,-271 5036.5,-235 9846.5,-235 9846.5,-271"/>
<text text-anchor="middle" x="7441.5" y="-249.3" font-family="Times,serif" font-size="14.00">WITH COLUMNS [col(&quot;ResponseCount&quot;).strict_cast(Float32), col(&quot;Direction&quot;).strict_cast(Categorical(None, Physical)), when([(col(&quot;SnapshotTime&quot;).str.slice([dyn int: 4, dyn int: 1])) == (String(-))]).then(col(&quot;SnapshotTime&quot;).str.strptime([String(raise)]).dt.cast_time_unit()).otherwise(col(&quot;SnapshotTime&quot;).str.strptime([String(raise)]).dt.replace_time_zone([String(raise)]).dt.cast_time_unit()).alias(&quot;SnapshotTime&quot;), col(&quot;Issue&quot;).strict_cast(Categorical(None, Physical)), col(&quot;Group&quot;).strict_cast(Categorical(None, Physical)), col(&quot;Configuration&quot;).strict_cast(Categorical(None, Physical)), col(&quot;Channel&quot;).strict_cast(Categorical(None, Physical)), col(&quot;Positives&quot;).strict_cast(Float32)]</text>
</g>
<!-- p7&#45;&#45;p8 -->
<g id="edge8" class="edge">
<title>p7--p8</title>
<path fill="none" stroke="black" d="M7441.5,-306.7C7441.5,-295.85 7441.5,-281.92 7441.5,-271.1"/>
</g>
<!-- p9 -->
<g id="node10" class="node">
<title>p9</title>
<polygon fill="none" stroke="black" points="7642,-199 7241,-199 7241,-161 7642,-161 7642,-199"/>
<text text-anchor="middle" x="7441.5" y="-183.8" font-family="Times,serif" font-size="14.00">simple π 12/12</text>
<text text-anchor="middle" x="7441.5" y="-168.8" font-family="Times,serif" font-size="14.00">[&quot;Treatment&quot;, &quot;ResponseCount&quot;, ... 10 other columns]</text>
</g>
<!-- p8&#45;&#45;p9 -->
<g id="edge9" class="edge">
<title>p8--p9</title>
<path fill="none" stroke="black" d="M7441.5,-234.81C7441.5,-223.98 7441.5,-210.01 7441.5,-199.02"/>
</g>
<!-- p10 -->
<g id="node11" class="node">
<title>p10</title>
<polygon fill="none" stroke="black" points="7483.5,-125 7399.5,-125 7399.5,-89 7483.5,-89 7483.5,-125"/>
<text text-anchor="middle" x="7441.5" y="-103.3" font-family="Times,serif" font-size="14.00">RENAME</text>
</g>
<!-- p9&#45;&#45;p10 -->
<g id="edge10" class="edge">
<title>p9--p10</title>
<path fill="none" stroke="black" d="M7441.5,-160.72C7441.5,-149.7 7441.5,-135.78 7441.5,-125"/>
</g>
<!-- p11 -->
<g id="node12" class="node">
<title>p11</title>
<polygon fill="none" stroke="black" points="7597,-53 7286,-53 7286,0 7597,0 7597,-53"/>
<text text-anchor="middle" x="7441.5" y="-37.8" font-family="Times,serif" font-size="14.00">TABLE</text>
<text text-anchor="middle" x="7441.5" y="-22.8" font-family="Times,serif" font-size="14.00">π 12/27;</text>
<text text-anchor="middle" x="7441.5" y="-7.8" font-family="Times,serif" font-size="14.00">σ col(&quot;Name&quot;).str.contains([String(Visa)])</text>
</g>
<!-- p10&#45;&#45;p11 -->
<g id="edge11" class="edge">
<title>p10--p11</title>
<path fill="none" stroke="black" d="M7441.5,-88.97C7441.5,-78.51 7441.5,-64.9 7441.5,-53.16"/>
</g>
<!-- p13 -->
<g id="node14" class="node">
<title>p13</title>
<polygon fill="none" stroke="black" points="5773.5,-959 5597.5,-959 5597.5,-906 5773.5,-906 5773.5,-959"/>
<text text-anchor="middle" x="5685.5" y="-943.8" font-family="Times,serif" font-size="14.00">JOIN INNER</text>
<text text-anchor="middle" x="5685.5" y="-928.8" font-family="Times,serif" font-size="14.00">left: [col(&quot;ModelID&quot;)];</text>
<text text-anchor="middle" x="5685.5" y="-913.8" font-family="Times,serif" font-size="14.00">right: [col(&quot;ModelID&quot;)]</text>
</g>
<!-- p12&#45;&#45;p13 -->
<g id="edge13" class="edge">
<title>p12--p13</title>
<path fill="none" stroke="black" d="M5669.84,-994.97C5672.51,-984.51 5675.97,-970.9 5678.96,-959.16"/>
</g>
<!-- p14 -->
<g id="node15" class="node">
<title>p14</title>
<polygon fill="none" stroke="black" points="6817,-870 6454,-870 6454,-832 6817,-832 6817,-870"/>
<text text-anchor="middle" x="6635.5" y="-854.8" font-family="Times,serif" font-size="14.00">simple π 19/20</text>
<text text-anchor="middle" x="6635.5" y="-839.8" font-family="Times,serif" font-size="14.00">[&quot;Contents&quot;, &quot;GroupIndex&quot;, ... 17 other columns]</text>
</g>
<!-- p13&#45;&#45;p14 -->
<g id="edge14" class="edge">
<title>p13--p14</title>
<path fill="none" stroke="black" d="M5773.6,-924.13C5927.92,-911.21 6250.08,-884.25 6453.86,-867.2"/>
</g>
<!-- p20 -->
<g id="node21" class="node">
<title>p20</title>
<polygon fill="none" stroke="black" points="5432.5,-869 5378.5,-869 5378.5,-833 5432.5,-833 5432.5,-869"/>
<text text-anchor="middle" x="5405.5" y="-847.3" font-family="Times,serif" font-size="14.00">π 1/1</text>
</g>
<!-- p13&#45;&#45;p20 -->
<g id="edge20" class="edge">
<title>p13--p20</title>
<path fill="none" stroke="black" d="M5597.29,-906.45C5540.54,-890.34 5470.58,-870.48 5432.81,-859.75"/>
</g>
<!-- p15 -->
<g id="node16" class="node">
<title>p15</title>
<polygon fill="none" stroke="black" points="9010.5,-795 6160.5,-795 6160.5,-759 9010.5,-759 9010.5,-795"/>
<text text-anchor="middle" x="7585.5" y="-773.3" font-family="Times,serif" font-size="14.00">WITH COLUMNS [[(col(&quot;BinPositives&quot;)) / (col(&quot;BinResponseCount&quot;))].alias(&quot;BinPropensity&quot;), [([(col(&quot;BinPositives&quot;)) + (0.5)]) / ([(col(&quot;BinResponseCount&quot;)) + (1.0)])].alias(&quot;BinAdjustedPropensity&quot;), when([(col(&quot;__POLARS_CSER_0xa03dc9f3f86ae182&quot;).list.length()) &gt; (1)]).then(col(&quot;__POLARS_CSER_0xa03dc9f3f86ae182&quot;).list.get([dyn int: 0])).otherwise(String(Primary)).alias(&quot;PredictorCategory&quot;)]</text>
</g>
<!-- p14&#45;&#45;p15 -->
<g id="edge15" class="edge">
<title>p14--p15</title>
<path fill="none" stroke="black" d="M6817.26,-836.22C6972,-824.5 7194.92,-807.6 7360.81,-795.03"/>
</g>
<!-- p16 -->
<g id="node17" class="node">
<title>p16</title>
<polygon fill="none" stroke="black" points="8413.5,-722 7491.5,-722 7491.5,-686 8413.5,-686 8413.5,-722"/>
<text text-anchor="middle" x="7952.5" y="-700.3" font-family="Times,serif" font-size="14.00">WITH COLUMNS [col(&quot;PredictorName&quot;).strict_cast(String).str.split([String(.)]).alias(&quot;__POLARS_CSER_0xa03dc9f3f86ae182&quot;)]</text>
</g>
<!-- p15&#45;&#45;p16 -->
<g id="edge16" class="edge">
<title>p15--p16</title>
<path fill="none" stroke="black" d="M7673.41,-758.99C7731.19,-747.81 7806.52,-733.24 7864.36,-722.05"/>
</g>
<!-- p17 -->
<g id="node18" class="node">
<title>p17</title>
<polygon fill="none" stroke="black" points="11263.5,-649 5377.5,-649 5377.5,-613 11263.5,-613 11263.5,-649"/>
<text text-anchor="middle" x="8320.5" y="-627.3" font-family="Times,serif" font-size="14.00">WITH COLUMNS [col(&quot;GroupIndex&quot;).strict_cast(UInt32), col(&quot;BinIndex&quot;).strict_cast(UInt16), col(&quot;ResponseCount&quot;).strict_cast(Float32), col(&quot;EntryType&quot;).strict_cast(Categorical(None, Physical)), col(&quot;BinType&quot;).strict_cast(Categorical(None, Physical)), when([(col(&quot;SnapshotTime&quot;).str.slice([dyn int: 4, dyn int: 1])) == (String(-))]).then(col(&quot;SnapshotTime&quot;).str.strptime([String(raise)]).dt.cast_time_unit()).otherwise(col(&quot;SnapshotTime&quot;).str.strptime([String(raise)]).dt.replace_time_zone([String(raise)]).dt.cast_time_unit()).alias(&quot;SnapshotTime&quot;), col(&quot;BinResponseCount&quot;).strict_cast(Float32), col(&quot;Type&quot;).strict_cast(Categorical(None, Physical)), col(&quot;Positives&quot;).strict_cast(Float32), col(&quot;PredictorName&quot;).strict_cast(Categorical(None, Physical)), col(&quot;BinPositives&quot;).strict_cast(Float32), col(&quot;BinNegatives&quot;).strict_cast(Float32)]</text>
</g>
<!-- p16&#45;&#45;p17 -->
<g id="edge17" class="edge">
<title>p16--p17</title>
<path fill="none" stroke="black" d="M8040.65,-685.99C8098.59,-674.81 8174.13,-660.24 8232.12,-649.05"/>
</g>
<!-- p18 -->
<g id="node19" class="node">
<title>p18</title>
<polygon fill="none" stroke="black" points="8362.5,-576 8278.5,-576 8278.5,-540 8362.5,-540 8362.5,-576"/>
<text text-anchor="middle" x="8320.5" y="-554.3" font-family="Times,serif" font-size="14.00">RENAME</text>
</g>
<!-- p17&#45;&#45;p18 -->
<g id="edge18" class="edge">
<title>p17--p18</title>
<path fill="none" stroke="black" d="M8320.5,-612.81C8320.5,-601.65 8320.5,-587.16 8320.5,-576.03"/>
</g>
<!-- p19 -->
<g id="node20" class="node">
<title>p19</title>
<polygon fill="none" stroke="black" points="8358,-504 8283,-504 8283,-451 8358,-451 8358,-504"/>
<text text-anchor="middle" x="8320.5" y="-488.8" font-family="Times,serif" font-size="14.00">TABLE</text>
<text text-anchor="middle" x="8320.5" y="-473.8" font-family="Times,serif" font-size="14.00">π 16/36;</text>
<text text-anchor="middle" x="8320.5" y="-458.8" font-family="Times,serif" font-size="14.00">σ None</text>
</g>
<!-- p18&#45;&#45;p19 -->
<g id="edge19" class="edge">
<title>p18--p19</title>
<path fill="none" stroke="black" d="M8320.5,-539.97C8320.5,-529.51 8320.5,-515.9 8320.5,-504.16"/>
</g>
<!-- p21 -->
<g id="node22" class="node">
<title>p21</title>
<polygon fill="none" stroke="black" points="5408,-796 5295,-796 5295,-758 5408,-758 5408,-796"/>
<text text-anchor="middle" x="5351.5" y="-780.8" font-family="Times,serif" font-size="14.00">simple π 1/15</text>
<text text-anchor="middle" x="5351.5" y="-765.8" font-family="Times,serif" font-size="14.00">[&quot;ModelID&quot;]</text>
</g>
<!-- p20&#45;&#45;p21 -->
<g id="edge21" class="edge">
<title>p20--p21</title>
<path fill="none" stroke="black" d="M5392.7,-832.94C5384.41,-821.88 5373.61,-807.48 5365.15,-796.2"/>
</g>
<!-- p21&#45;&#45;c0 -->
<g id="edge22" class="edge">
<title>p21--c0</title>
<path fill="none" stroke="black" d="M5302.55,-757.99C5272.51,-746.94 5234.27,-732.87 5204.74,-722.01"/>
</g>
<!-- p23 -->
<g id="node24" class="node">
<title>p23</title>
<polygon fill="none" stroke="black" points="3278.5,-576 2900.5,-576 2900.5,-540 3278.5,-540 3278.5,-576"/>
<text text-anchor="middle" x="3089.5" y="-554.3" font-family="Times,serif" font-size="14.00">FILTER BY col(&quot;Name&quot;).str.contains([String(Visa)])</text>
</g>
<!-- p22&#45;&#45;p23 -->
<g id="edge24" class="edge">
<title>p22--p23</title>
<path fill="none" stroke="black" d="M3709.92,-612.65C3578.43,-601.28 3407.62,-586.51 3278.52,-575.35"/>
</g>
<!-- p24 -->
<g id="node25" class="node">
<title>p24</title>
<polygon fill="none" stroke="black" points="2880,-496.5 2479,-496.5 2479,-458.5 2880,-458.5 2880,-496.5"/>
<text text-anchor="middle" x="2679.5" y="-481.3" font-family="Times,serif" font-size="14.00">simple π 15/16</text>
<text text-anchor="middle" x="2679.5" y="-466.3" font-family="Times,serif" font-size="14.00">[&quot;Treatment&quot;, &quot;ResponseCount&quot;, ... 13 other columns]</text>
</g>
<!-- p23&#45;&#45;p24 -->
<g id="edge25" class="edge">
<title>p23--p24</title>
<path fill="none" stroke="black" d="M3000.54,-539.97C2933.53,-527.14 2841.87,-509.59 2773.64,-496.52"/>
</g>
<!-- p25 -->
<g id="node26" class="node">
<title>p25</title>
<polygon fill="none" stroke="black" points="4949,-415 0,-415 0,-379 4949,-379 4949,-415"/>
<text text-anchor="middle" x="2474.5" y="-393.3" font-family="Times,serif" font-size="14.00">WITH COLUMNS [when([(col(&quot;__POLARS_CSER_0x9cffb76be0071622&quot;).is_not_nan()) | (col(&quot;__POLARS_CSER_0x9cffb76be0071622&quot;).is_null())]).then(col(&quot;__POLARS_CSER_0x9cffb76be0071622&quot;)).otherwise(0.0).alias(&quot;SuccessRate&quot;), when([(col(&quot;Positives&quot;).min()) == (col(&quot;Positives&quot;).max())]).then(col(&quot;SnapshotTime&quot;).max()).otherwise(col(&quot;SnapshotTime&quot;).filter([(col(&quot;Positives&quot;).diff()) != (0.0)]).max()).over([col(&quot;ModelID&quot;)]).alias(&quot;Last_Positives&quot;), when([(col(&quot;ResponseCount&quot;).min()) == (col(&quot;ResponseCount&quot;).max())]).then(col(&quot;SnapshotTime&quot;).max()).otherwise(col(&quot;SnapshotTime&quot;).filter([(col(&quot;ResponseCount&quot;).diff()) != (0.0)]).max()).over([col(&quot;ModelID&quot;)]).alias(&quot;Last_ResponseCount&quot;)]</text>
</g>
<!-- p24&#45;&#45;p25 -->
<g id="edge26" class="edge">
<title>p24--p25</title>
<path fill="none" stroke="black" d="M2632.47,-458.49C2598.42,-445.45 2552.7,-427.94 2519.2,-415.12"/>
</g>
<!-- p26 -->
<g id="node27" class="node">
<title>p26</title>
<polygon fill="none" stroke="black" points="2876,-343 2073,-343 2073,-307 2876,-307 2876,-343"/>
<text text-anchor="middle" x="2474.5" y="-321.3" font-family="Times,serif" font-size="14.00">WITH COLUMNS [[(col(&quot;Positives&quot;)) / (col(&quot;ResponseCount&quot;))].alias(&quot;__POLARS_CSER_0x9cffb76be0071622&quot;)]</text>
</g>
<!-- p25&#45;&#45;p26 -->
<g id="edge27" class="edge">
<title>p25--p26</title>
<path fill="none" stroke="black" d="M2474.5,-378.7C2474.5,-367.85 2474.5,-353.92 2474.5,-343.1"/>
</g>
<!-- p27 -->
<g id="node28" class="node">
<title>p27</title>
<polygon fill="none" stroke="black" points="4879.5,-271 69.5,-271 69.5,-235 4879.5,-235 4879.5,-271"/>
<text text-anchor="middle" x="2474.5" y="-249.3" font-family="Times,serif" font-size="14.00">WITH COLUMNS [col(&quot;ResponseCount&quot;).strict_cast(Float32), col(&quot;Direction&quot;).strict_cast(Categorical(None, Physical)), when([(col(&quot;SnapshotTime&quot;).str.slice([dyn int: 4, dyn int: 1])) == (String(-))]).then(col(&quot;SnapshotTime&quot;).str.strptime([String(raise)]).dt.cast_time_unit()).otherwise(col(&quot;SnapshotTime&quot;).str.strptime([String(raise)]).dt.replace_time_zone([String(raise)]).dt.cast_time_unit()).alias(&quot;SnapshotTime&quot;), col(&quot;Issue&quot;).strict_cast(Categorical(None, Physical)), col(&quot;Group&quot;).strict_cast(Categorical(None, Physical)), col(&quot;Configuration&quot;).strict_cast(Categorical(None, Physical)), col(&quot;Channel&quot;).strict_cast(Categorical(None, Physical)), col(&quot;Positives&quot;).strict_cast(Float32)]</text>
</g>
<!-- p26&#45;&#45;p27 -->
<g id="edge28" class="edge">
<title>p26--p27</title>
<path fill="none" stroke="black" d="M2474.5,-306.7C2474.5,-295.85 2474.5,-281.92 2474.5,-271.1"/>
</g>
<!-- p28 -->
<g id="node29" class="node">
<title>p28</title>
<polygon fill="none" stroke="black" points="2675,-199 2274,-199 2274,-161 2675,-161 2675,-199"/>
<text text-anchor="middle" x="2474.5" y="-183.8" font-family="Times,serif" font-size="14.00">simple π 12/12</text>
<text text-anchor="middle" x="2474.5" y="-168.8" font-family="Times,serif" font-size="14.00">[&quot;Treatment&quot;, &quot;ResponseCount&quot;, ... 10 other columns]</text>
</g>
<!-- p27&#45;&#45;p28 -->
<g id="edge29" class="edge">
<title>p27--p28</title>
<path fill="none" stroke="black" d="M2474.5,-234.81C2474.5,-223.98 2474.5,-210.01 2474.5,-199.02"/>
</g>
<!-- p29 -->
<g id="node30" class="node">
<title>p29</title>
<polygon fill="none" stroke="black" points="2516.5,-125 2432.5,-125 2432.5,-89 2516.5,-89 2516.5,-125"/>
<text text-anchor="middle" x="2474.5" y="-103.3" font-family="Times,serif" font-size="14.00">RENAME</text>
</g>
<!-- p28&#45;&#45;p29 -->
<g id="edge30" class="edge">
<title>p28--p29</title>
<path fill="none" stroke="black" d="M2474.5,-160.72C2474.5,-149.7 2474.5,-135.78 2474.5,-125"/>
</g>
<!-- p30 -->
<g id="node31" class="node">
<title>p30</title>
<polygon fill="none" stroke="black" points="2630,-53 2319,-53 2319,0 2630,0 2630,-53"/>
<text text-anchor="middle" x="2474.5" y="-37.8" font-family="Times,serif" font-size="14.00">TABLE</text>
<text text-anchor="middle" x="2474.5" y="-22.8" font-family="Times,serif" font-size="14.00">π 12/27;</text>
<text text-anchor="middle" x="2474.5" y="-7.8" font-family="Times,serif" font-size="14.00">σ col(&quot;Name&quot;).str.contains([String(Visa)])</text>
</g>
<!-- p29&#45;&#45;p30 -->
<g id="edge31" class="edge">
<title>p29--p30</title>
<path fill="none" stroke="black" d="M2474.5,-88.97C2474.5,-78.51 2474.5,-64.9 2474.5,-53.16"/>
</g>
</g>
</svg>