<svg xmlns="http://www.w3.org/2000/svg" xmlns:xlink="http://www.w3.org/1999/xlink" width="5590pt" height="349pt" viewBox="0.00 0.00 5590.00 349.00">
<g id="graph0" class="graph" transform="scale(1 1) rotate(0) translate(4 345)">
<title>polars_query</title>
<polygon fill="white" stroke="transparent" points="-4,4 -4,-345 5586,-345 5586,4 -4,4"/>
<!-- p1 -->
<g id="node1" class="node">
<title>p1</title>
<polygon fill="none" stroke="black" points="2980,-341 2602,-341 2602,-305 2980,-305 2980,-341"/>
<text text-anchor="middle" x="2791" y="-319.3" font-family="Times,serif" font-size="14.00">FILTER BY col(&quot;Name&quot;).str.contains([String(Visa)])</text>
</g>
<!-- p2 -->
<g id="node2" class="node">
<title>p2</title>
<polygon fill="none" stroke="black" points="5582,-269 0,-269 0,-233 5582,-233 5582,-269"/>
<text text-anchor="middle" x="2791" y="-247.3" font-family="Times,serif" font-size="14.00">WITH COLUMNS [when([(col(&quot;__POLARS_CSER_0xb7962f1c3cfe3fc1&quot;).is_not_nan()) | (col(&quot;__POLARS_CSER_0xb7962f1c3cfe3fc1&quot;).is_null())]).then(col(&quot;__POLARS_CSER_0xb7962f1c3cfe3fc1&quot;)).otherwise(0.0).alias(&quot;SuccessRate&quot;), when([(col(&quot;Positives&quot;).min()) == (col(&quot;Positives&quot;).max())]).then(col(&quot;SnapshotTime&quot;).max()).otherwise(col(&quot;SnapshotTime&quot;).filter([(col(&quot;Positives&quot;).diff()) != (0.0)]).max()).over([col(&quot;ModelID&quot;)]).alias(&quot;Last_Positives&quot;), when([(col(&quot;ResponseCount&quot;).min()) == (col(&quot;ResponseCount&quot;).max())]).then(col(&quot;SnapshotTime&quot;).max()).otherwise(col(&quot;SnapshotTime&quot;).filter([(col(&quot;ResponseCount&quot;).diff()) != (0.0)]).max()).over([col(&quot;ModelID&quot;)]).alias(&quot;Last_ResponseCount&quot;), [(col(&quot;Positives&quot;)) / (col(&quot;ResponseCount&quot;))].alias(&quot;__POLARS_CSER_0xb7962f1c3cfe3fc1&quot;)]</text>
</g>
<!-- p1&#45;&#45;p2 -->
<g id="edge1" class="edge">
<title>p1--p2</title>
<path fill="none" stroke="black" d="M2791,-304.7C2791,-293.85 2791,-279.92 2791,-269.1"/>
</g>
<!-- p3 -->
<g id="node3" class="node">
<title>p3</title>
<polygon fill="none" stroke="black" points="5196,-197 386,-197 386,-161 5196,-161 5196,-197"/>
<text text-anchor="middle" x="2791" y="-175.3" font-family="Times,serif" font-size="14.00">WITH COLUMNS [col(&quot;Group&quot;).strict_cast(Categorical(None, Physical)), col(&quot;ResponseCount&quot;).strict_cast(Float32), col(&quot;Direction&quot;).strict_cast(Categorical(None, Physical)), col(&quot;Issue&quot;).strict_cast(Categorical(None, Physical)), col(&quot;Channel&quot;).strict_cast(Categorical(None, Physical)), when([(col(&quot;SnapshotTime&quot;).str.slice([dyn int: 4, dyn int: 1])) == (String(-))]).then(col(&quot;SnapshotTime&quot;).str.strptime([String(raise)]).dt.cast_time_unit()).otherwise(col(&quot;SnapshotTime&quot;).str.strptime([String(raise)]).dt.replace_time_zone([String(raise)]).dt.cast_time_unit()).alias(&quot;SnapshotTime&quot;), col(&quot;Configuration&quot;).strict_cast(Categorical(None, Physical)), col(&quot;Positives&quot;).strict_cast(Float32)]</text>
</g>
<!-- p2&#45;&#45;p3 -->
<g id="edge2" class="edge">
<title>p2--p3</title>
<path fill="none" stroke="black" d="M2791,-232.7C2791,-221.85 2791,-207.92 2791,-197.1"/>
</g>
<!-- p4 -->
<g id="node4" class="node">
<title>p4</title>
<polygon fill="none" stroke="black" points="2833,-125 2749,-125 2749,-89 2833,-89 2833,-125"/>
<text text-anchor="middle" x="2791" y="-103.3" font-family="Times,serif" font-size="14.00">RENAME</text>
</g>
<!-- p3&#45;&#45;p4 -->
<g id="edge3" class="edge">
<title>p3--p4</title>
<path fill="none" stroke="black" d="M2791,-160.7C2791,-149.85 2791,-135.92 2791,-125.1"/>
</g>
<!-- p5 -->
<g id="node5" class="node">
<title>p5</title>
<polygon fill="none" stroke="black" points="2946.5,-53 2635.5,-53 2635.5,0 2946.5,0 2946.5,-53"/>
<text text-anchor="middle" x="2791" y="-37.8" font-family="Times,serif" font-size="14.00">TABLE</text>
<text text-anchor="middle" x="2791" y="-22.8" font-family="Times,serif" font-size="14.00">π 12/27;</text>
<text text-anchor="middle" x="2791" y="-7.8" font-family="Times,serif" font-size="14.00">σ col(&quot;Name&quot;).str.contains([String(Visa)])</text>
</g>
<!-- p4&#45;&#45;p5 -->
<g id="edge4" class="edge">
<title>p4--p5</title>
<path fill="none" stroke="black" d="M2791,-88.97C2791,-78.51 2791,-64.9 2791,-53.16"/>
</g>
</g>
</svg>