<svg xmlns="http://www.w3.org/2000/svg" xmlns:xlink="http://www.w3.org/1999/xlink" width="11214pt" height="906pt" viewBox="0.00 0.00 11214.00 906.00">
<g id="graph0" class="graph" transform="scale(1 1) rotate(0) translate(4 902)">
<title>polars_query</title>
<polygon fill="white" stroke="transparent" points="-4,4 -4,-902 11210,-902 11210,4 -4,4"/>
<!-- p1 -->
<g id="node1" class="node">
<title>p1</title>
<polygon fill="none" stroke="black" points="5202,-898 5026,-898 5026,-845 5202,-845 5202,-898"/>
<text text-anchor="middle" x="5114" y="-882.8" font-family="Times,serif" font-size="14.00">JOIN INNER</text>
<text text-anchor="middle" x="5114" y="-867.8" font-family="Times,serif" font-size="14.00">left: [col(&quot;ModelID&quot;)];</text>
<text text-anchor="middle" x="5114" y="-852.8" font-family="Times,serif" font-size="14.00">right: [col(&quot;ModelID&quot;)]</text>
</g>
<!-- p2 -->
<g id="node2" class="node">
<title>p2</title>
<polygon fill="none" stroke="black" points="5272.5,-728.5 4429.5,-728.5 4429.5,-692.5 5272.5,-692.5 5272.5,-728.5"/>
<text text-anchor="middle" x="4851" y="-706.8" font-family="Times,serif" font-size="14.00">FILTER BY [(col(&quot;SnapshotTime&quot;).fill_null_with_strategy()) == (col(&quot;SnapshotTime&quot;).fill_null_with_strategy().max())]</text>
</g>
<!-- p1&#45;&#45;p2 -->
<g id="edge1" class="edge">
<title>p1--p2</title>
<path fill="none" stroke="black" d="M5025.79,-852.66C4993.11,-843.24 4956.98,-829.29 4928,-809 4897.43,-787.6 4873.01,-750.6 4860.39,-728.85"/>
</g>
<!-- p9 -->
<g id="node10" class="node">
<title>p9</title>
<polygon fill="none" stroke="black" points="5779.5,-809 4936.5,-809 4936.5,-773 5779.5,-773 5779.5,-809"/>
<text text-anchor="middle" x="5358" y="-787.3" font-family="Times,serif" font-size="14.00">FILTER BY [(col(&quot;SnapshotTime&quot;).fill_null_with_strategy()) == (col(&quot;SnapshotTime&quot;).fill_null_with_strategy().max())]</text>
</g>
<!-- p1&#45;&#45;p9 -->
<g id="edge9" class="edge">
<title>p1--p9</title>
<path fill="none" stroke="black" d="M5193.56,-844.9C5230.13,-833.14 5272.52,-819.5 5305.1,-809.02"/>
</g>
<!-- c0 -->
<g id="node3" class="node">
<title>c0</title>
<polygon fill="none" stroke="black" points="4960,-502 4828,-502 4828,-466 4960,-466 4960,-502"/>
<text text-anchor="middle" x="4894" y="-480.3" font-family="Times,serif" font-size="14.00">CACHE: 1 times</text>
</g>
<!-- p2&#45;&#45;c0 -->
<g id="edge2" class="edge">
<title>p2--c0</title>
<path fill="none" stroke="black" d="M4851.13,-692.13C4851.77,-660.77 4854.94,-592.89 4870,-538 4873.42,-525.53 4879.42,-512.28 4884.57,-502.15"/>
</g>
<!-- p3 -->
<g id="node4" class="node">
<title>p3</title>
<polygon fill="none" stroke="black" points="6491,-421.5 6113,-421.5 6113,-385.5 6491,-385.5 6491,-421.5"/>
<text text-anchor="middle" x="6302" y="-399.8" font-family="Times,serif" font-size="14.00">FILTER BY col(&quot;Name&quot;).str.contains([String(Visa)])</text>
</g>
<!-- c0&#45;&#45;p3 -->
<g id="edge3" class="edge">
<title>c0--p3</title>
<path fill="none" stroke="black" d="M4960.02,-479.32C5164.72,-467.91 5794.03,-432.82 6112.79,-415.05"/>
</g>
<!-- p17 -->
<g id="node18" class="node">
<title>p17</title>
<polygon fill="none" stroke="black" points="3685,-421.5 3307,-421.5 3307,-385.5 3685,-385.5 3685,-421.5"/>
<text text-anchor="middle" x="3496" y="-399.8" font-family="Times,serif" font-size="14.00">FILTER BY col(&quot;Name&quot;).str.contains([String(Visa)])</text>
</g>
<!-- c0&#45;&#45;p17 -->
<g id="edge18" class="edge">
<title>c0--p17</title>
<path fill="none" stroke="black" d="M4827.98,-479.29C4624.55,-467.87 4001.94,-432.91 3685.25,-415.13"/>
</g>
<!-- p4 -->
<g id="node5" class="node">
<title>p4</title>
<polygon fill="none" stroke="black" points="11206,-341 5612,-341 5612,-305 11206,-305 11206,-341"/>
<text text-anchor="middle" x="8409" y="-319.3" font-family="Times,serif" font-size="14.00">WITH COLUMNS [when([(col(&quot;__POLARS_CSER_0x38c6a1b23eeab54&quot;).is_not_nan()) | (col(&quot;__POLARS_CSER_0x38c6a1b23eeab54&quot;).is_null())]).then(col(&quot;__POLARS_CSER_0x38c6a1b23eeab54&quot;)).otherwise(0.0).alias(&quot;SuccessRate&quot;), when([(col(&quot;Positives&quot;).min()) == (col(&quot;Positives&quot;).max())]).then(col(&quot;SnapshotTime&quot;).max()).otherwise(col(&quot;SnapshotTime&quot;).filter([(col(&quot;Positives&quot;).diff()) != (0.0)]).max()).over([col(&quot;ModelID&quot;)]).alias(&quot;Last_Positives&quot;), when([(col(&quot;ResponseCount&quot;).min()) == (col(&quot;ResponseCount&quot;).max())]).then(col(&quot;SnapshotTime&quot;).max()).otherwise(col(&quot;SnapshotTime&quot;).filter([(col(&quot;ResponseCount&quot;).diff()) != (0.0)]).max()).over([col(&quot;ModelID&quot;)]).alias(&quot;Last_ResponseCount&quot;), [(col(&quot;Positives&quot;)) / (col(&quot;ResponseCount&quot;))].alias(&quot;__POLARS_CSER_0x38c6a1b23eeab54&quot;)]</text>
</g>
<!-- p3&#45;&#45;p4 -->
<g id="edge4" class="edge">
<title>p3--p4</title>
<path fill="none" stroke="black" d="M6491.3,-395.45C6818.05,-383.27 7496.61,-357.99 7952.51,-341.01"/>
</g>
<!-- p5 -->
<g id="node6" class="node">
<title>p5</title>
<polygon fill="none" stroke="black" points="10814,-269 6004,-269 6004,-233 10814,-233 10814,-269"/>
<text text-anchor="middle" x="8409" y="-247.3" font-family="Times,serif" font-size="14.00">WITH COLUMNS [col(&quot;ResponseCount&quot;).strict_cast(Float32), col(&quot;Direction&quot;).strict_cast(Categorical(None, Physical)), when([(col(&quot;SnapshotTime&quot;).str.slice([dyn int: 4, dyn int: 1])) == (String(-))]).then(col(&quot;SnapshotTime&quot;).str.strptime([String(raise)]).dt.cast_time_unit()).otherwise(col(&quot;SnapshotTime&quot;).str.strptime([String(raise)]).dt.replace_time_zone([String(raise)]).dt.cast_time_unit()).alias(&quot;SnapshotTime&quot;), col(&quot;Configuration&quot;).strict_cast(Categorical(None, Physical)), col(&quot;Issue&quot;).strict_cast(Categorical(None, Physical)), col(&quot;Group&quot;).strict_cast(Categorical(None, Physical)), col(&quot;Channel&quot;).strict_cast(Categorical(None, Physical)), col(&quot;Positives&quot;).strict_cast(Float32)]</text>
</g>
<!-- p4&#45;&#45;p5 -->
<g id="edge5" class="edge">
<title>p4--p5</title>
<path fill="none" stroke="black" d="M8409,-304.7C8409,-293.85 8409,-279.92 8409,-269.1"/>
</g>
<!-- p6 -->
<g id="node7" class="node">
<title>p6</title>
<polygon fill="none" stroke="black" points="8444.5,-197 8373.5,-197 8373.5,-161 8444.5,-161 8444.5,-197"/>
<text text-anchor="middle" x="8409" y="-175.3" font-family="Times,serif" font-size="14.00">π 12/12</text>
</g>
<!-- p5&#45;&#45;p6 -->
<g id="edge6" class="edge">
<title>p5--p6</title>
<path fill="none" stroke="black" d="M8409,-232.7C8409,-221.85 8409,-207.92 8409,-197.1"/>
</g>
<!-- p7 -->
<g id="node8" class="node">
<title>p7</title>
<polygon fill="none" stroke="black" points="8451,-125 8367,-125 8367,-89 8451,-89 8451,-125"/>
<text text-anchor="middle" x="8409" y="-103.3" font-family="Times,serif" font-size="14.00">RENAME</text>
</g>
<!-- p6&#45;&#45;p7 -->
<g id="edge7" class="edge">
<title>p6--p7</title>
<path fill="none" stroke="black" d="M8409,-160.7C8409,-149.85 8409,-135.92 8409,-125.1"/>
</g>
<!-- p8 -->
<g id="node9" class="node">
<title>p8</title>
<polygon fill="none" stroke="black" points="8564.5,-53 8253.5,-53 8253.5,0 8564.5,0 8564.5,-53"/>
<text text-anchor="middle" x="8409" y="-37.8" font-family="Times,serif" font-size="14.00">TABLE</text>
<text text-anchor="middle" x="8409" y="-22.8" font-family="Times,serif" font-size="14.00">π 12/27;</text>
<text text-anchor="middle" x="8409" y="-7.8" font-family="Times,serif" font-size="14.00">σ col(&quot;Name&quot;).str.contains([String(Visa)])</text>
</g>
<!-- p7&#45;&#45;p8 -->
<g id="edge8" class="edge">
<title>p7--p8</title>
<path fill="none" stroke="black" d="M8409,-88.97C8409,-78.51 8409,-64.9 8409,-53.16"/>
</g>
<!-- p10 -->
<g id="node11" class="node">
<title>p10</title>
<polygon fill="none" stroke="black" points="5466,-737 5290,-737 5290,-684 5466,-684 5466,-737"/>
<text text-anchor="middle" x="5378" y="-721.8" font-family="Times,serif" font-size="14.00">JOIN INNER</text>
<text text-anchor="middle" x="5378" y="-706.8" font-family="Times,serif" font-size="14.00">left: [col(&quot;ModelID&quot;)];</text>
<text text-anchor="middle" x="5378" y="-691.8" font-family="Times,serif" font-size="14.00">right: [col(&quot;ModelID&quot;)]</text>
</g>
<!-- p9&#45;&#45;p10 -->
<g id="edge10" class="edge">
<title>p9--p10</title>
<path fill="none" stroke="black" d="M5362.34,-772.97C5365.01,-762.51 5368.47,-748.9 5371.46,-737.16"/>
</g>
<!-- p11 -->
<g id="node12" class="node">
<title>p11</title>
<polygon fill="none" stroke="black" points="9414.5,-648 5779.5,-648 5779.5,-612 9414.5,-612 9414.5,-648"/>
<text text-anchor="middle" x="7597" y="-626.3" font-family="Times,serif" font-size="14.00">WITH COLUMNS [[(col(&quot;BinPositives&quot;)) / (col(&quot;BinResponseCount&quot;))].alias(&quot;BinPropensity&quot;), [([(col(&quot;BinPositives&quot;)) + (0.5)]) / ([(col(&quot;BinResponseCount&quot;)) + (1.0)])].alias(&quot;BinAdjustedPropensity&quot;), when([(col(&quot;__POLARS_CSER_0x69adafc6777da72e&quot;).list.length()) &gt; (1)]).then(col(&quot;__POLARS_CSER_0x69adafc6777da72e&quot;).list.get([dyn int: 0])).otherwise(String(Primary)).alias(&quot;PredictorCategory&quot;), col(&quot;PredictorName&quot;).strict_cast(String).str.split([String(.)]).alias(&quot;__POLARS_CSER_0x69adafc6777da72e&quot;)]</text>
</g>
<!-- p10&#45;&#45;p11 -->
<g id="edge11" class="edge">
<title>p10--p11</title>
<path fill="none" stroke="black" d="M5466.01,-706.39C5737.41,-696.79 6575.58,-667.13 7116.29,-648.01"/>
</g>
<!-- p15 -->
<g id="node16" class="node">
<title>p15</title>
<polygon fill="none" stroke="black" points="5184,-648 5130,-648 5130,-612 5184,-612 5184,-648"/>
<text text-anchor="middle" x="5157" y="-626.3" font-family="Times,serif" font-size="14.00">π 1/1</text>
</g>
<!-- p10&#45;&#45;p15 -->
<g id="edge15" class="edge">
<title>p10--p15</title>
<path fill="none" stroke="black" d="M5305.94,-683.9C5264.25,-669.1 5214.21,-651.32 5184.05,-640.61"/>
</g>
<!-- p12 -->
<g id="node13" class="node">
<title>p12</title>
<polygon fill="none" stroke="black" points="10897,-575 5011,-575 5011,-539 10897,-539 10897,-575"/>
<text text-anchor="middle" x="7954" y="-553.3" font-family="Times,serif" font-size="14.00">WITH COLUMNS [col(&quot;GroupIndex&quot;).strict_cast(UInt32), col(&quot;ResponseCount&quot;).strict_cast(Float32), col(&quot;BinType&quot;).strict_cast(Categorical(None, Physical)), when([(col(&quot;SnapshotTime&quot;).str.slice([dyn int: 4, dyn int: 1])) == (String(-))]).then(col(&quot;SnapshotTime&quot;).str.strptime([String(raise)]).dt.cast_time_unit()).otherwise(col(&quot;SnapshotTime&quot;).str.strptime([String(raise)]).dt.replace_time_zone([String(raise)]).dt.cast_time_unit()).alias(&quot;SnapshotTime&quot;), col(&quot;BinNegatives&quot;).strict_cast(Float32), col(&quot;EntryType&quot;).strict_cast(Categorical(None, Physical)), col(&quot;PredictorName&quot;).strict_cast(Categorical(None, Physical)), col(&quot;BinPositives&quot;).strict_cast(Float32), col(&quot;Type&quot;).strict_cast(Categorical(None, Physical)), col(&quot;BinIndex&quot;).strict_cast(UInt16), col(&quot;Positives&quot;).strict_cast(Float32), col(&quot;BinResponseCount&quot;).strict_cast(Float32)]</text>
</g>
<!-- p11&#45;&#45;p12 -->
<g id="edge12" class="edge">
<title>p11--p12</title>
<path fill="none" stroke="black" d="M7682.51,-611.99C7738.72,-600.81 7812,-586.24 7868.26,-575.05"/>
</g>
<!-- p13 -->
<g id="node14" class="node">
<title>p13</title>
<polygon fill="none" stroke="black" points="7996,-502 7912,-502 7912,-466 7996,-466 7996,-502"/>
<text text-anchor="middle" x="7954" y="-480.3" font-family="Times,serif" font-size="14.00">RENAME</text>
</g>
<!-- p12&#45;&#45;p13 -->
<g id="edge13" class="edge">
<title>p12--p13</title>
<path fill="none" stroke="black" d="M7954,-538.81C7954,-527.65 7954,-513.16 7954,-502.03"/>
</g>
<!-- p14 -->
<g id="node15" class="node">
<title>p14</title>
<polygon fill="none" stroke="black" points="7991.5,-430 7916.5,-430 7916.5,-377 7991.5,-377 7991.5,-430"/>
<text text-anchor="middle" x="7954" y="-414.8" font-family="Times,serif" font-size="14.00">TABLE</text>
<text text-anchor="middle" x="7954" y="-399.8" font-family="Times,serif" font-size="14.00">π 16/36;</text>
<text text-anchor="middle" x="7954" y="-384.8" font-family="Times,serif" font-size="14.00">σ None</text>
</g>
<!-- p13&#45;&#45;p14 -->
<g id="edge14" class="edge">
<title>p13--p14</title>
<path fill="none" stroke="black" d="M7954,-465.97C7954,-455.51 7954,-441.9 7954,-430.16"/>
</g>
<!-- p16 -->
<g id="node17" class="node">
<title>p16</title>
<polygon fill="none" stroke="black" points="4992.5,-576 4879.5,-576 4879.5,-538 4992.5,-538 4992.5,-576"/>
<text text-anchor="middle" x="4936" y="-560.8" font-family="Times,serif" font-size="14.00">simple π 1/15</text>
<text text-anchor="middle" x="4936" y="-545.8" font-family="Times,serif" font-size="14.00">[&quot;ModelID&quot;]</text>
</g>
<!-- p15&#45;&#45;p16 -->
<g id="edge16" class="edge">
<title>p15--p16</title>
<path fill="none" stroke="black" d="M5129.9,-620.29C5095.78,-609.33 5036.31,-590.23 4992.2,-576.05"/>
</g>
<!-- p16&#45;&#45;c0 -->
<g id="edge17" class="edge">
<title>p16--c0</title>
<path fill="none" stroke="black" d="M4925.18,-537.72C4918.67,-526.7 4910.43,-512.78 4904.06,-502"/>
</g>
<!-- p18 -->
<g id="node19" class="node">
<title>p18</title>
<polygon fill="none" stroke="black" points="5594,-341 0,-341 0,-305 5594,-305 5594,-341"/>
<text text-anchor="middle" x="2797" y="-319.3" font-family="Times,serif" font-size="14.00">WITH COLUMNS [when([(col(&quot;__POLARS_CSER_0x38c6a1b23eeab54&quot;).is_not_nan()) | (col(&quot;__POLARS_CSER_0x38c6a1b23eeab54&quot;).is_null())]).then(col(&quot;__POLARS_CSER_0x38c6a1b23eeab54&quot;)).otherwise(0.0).alias(&quot;SuccessRate&quot;), when([(col(&quot;Positives&quot;).min()) == (col(&quot;Positives&quot;).max())]).then(col(&quot;SnapshotTime&quot;).max()).otherwise(col(&quot;SnapshotTime&quot;).filter([(col(&quot;Positives&quot;).diff()) != (0.0)]).max()).over([col(&quot;ModelID&quot;)]).alias(&quot;Last_Positives&quot;), when([(col(&quot;ResponseCount&quot;).min()) == (col(&quot;ResponseCount&quot;).max())]).then(col(&quot;SnapshotTime&quot;).max()).otherwise(col(&quot;SnapshotTime&quot;).filter([(col(&quot;ResponseCount&quot;).diff()) != (0.0)]).max()).over([col(&quot;ModelID&quot;)]).alias(&quot;Last_ResponseCount&quot;), [(col(&quot;Positives&quot;)) / (col(&quot;ResponseCount&quot;))].alias(&quot;__POLARS_CSER_0x38c6a1b23eeab54&quot;)]</text>
</g>
<!-- p17&#45;&#45;p18 -->
<g id="edge19" class="edge">
<title>p17--p18</title>
<path fill="none" stroke="black" d="M3344.33,-385.47C3227.08,-372.3 3065.55,-354.16 2948.38,-341"/>
</g>
<!-- p19 -->
<g id="node20" class="node">
<title>p19</title>
<polygon fill="none" stroke="black" points="5202,-269 392,-269 392,-233 5202,-233 5202,-269"/>
<text text-anchor="middle" x="2797" y="-247.3" font-family="Times,serif" font-size="14.00">WITH COLUMNS [col(&quot;ResponseCount&quot;).strict_cast(Float32), col(&quot;Direction&quot;).strict_cast(Categorical(None, Physical)), when([(col(&quot;SnapshotTime&quot;).str.slice([dyn int: 4, dyn int: 1])) == (String(-))]).then(col(&quot;SnapshotTime&quot;).str.strptime([String(raise)]).dt.cast_time_unit()).otherwise(col(&quot;SnapshotTime&quot;).str.strptime([String(raise)]).dt.replace_time_zone([String(raise)]).dt.cast_time_unit()).alias(&quot;SnapshotTime&quot;), col(&quot;Configuration&quot;).strict_cast(Categorical(None, Physical)), col(&quot;Issue&quot;).strict_cast(Categorical(None, Physical)), col(&quot;Group&quot;).strict_cast(Categorical(None, Physical)), col(&quot;Channel&quot;).strict_cast(Categorical(None, Physical)), col(&quot;Positives&quot;).strict_cast(Float32)]</text>
</g>
<!-- p18&#45;&#45;p19 -->
<g id="edge20" class="edge">
<title>p18--p19</title>
<path fill="none" stroke="black" d="M2797,-304.7C2797,-293.85 2797,-279.92 2797,-269.1"/>
</g>
<!-- p20 -->
<g id="node21" class="node">
<title>p20</title>
<polygon fill="none" stroke="black" points="2832.5,-197 2761.5,-197 2761.5,-161 2832.5,-161 2832.5,-197"/>
<text text-anchor="middle" x="2797" y="-175.3" font-family="Times,serif" font-size="14.00">π 12/12</text>
</g>
<!-- p19&#45;&#45;p20 -->
<g id="edge21" class="edge">
<title>p19--p20</title>
<path fill="none" stroke="black" d="M2797,-232.7C2797,-221.85 2797,-207.92 2797,-197.1"/>
</g>
<!-- p21 -->
<g id="node22" class="node">
<title>p21</title>
<polygon fill="none" stroke="black" points="2839,-125 2755,-125 2755,-89 2839,-89 2839,-125"/>
<text text-anchor="middle" x="2797" y="-103.3" font-family="Times,serif" font-size="14.00">RENAME</text>
</g>
<!-- p20&#45;&#45;p21 -->
<g id="edge22" class="edge">
<title>p20--p21</title>
<path fill="none" stroke="black" d="M2797,-160.7C2797,-149.85 2797,-135.92 2797,-125.1"/>
</g>
<!-- p22 -->
<g id="node23" class="node">
<title>p22</title>
<polygon fill="none" stroke="black" points="2952.5,-53 2641.5,-53 2641.5,0 2952.5,0 2952.5,-53"/>
<text text-anchor="middle" x="2797" y="-37.8" font-family="Times,serif" font-size="14.00">TABLE</text>
<text text-anchor="middle" x="2797" y="-22.8" font-family="Times,serif" font-size="14.00">π 12/27;</text>
<text text-anchor="middle" x="2797" y="-7.8" font-family="Times,serif" font-size="14.00">σ col(&quot;Name&quot;).str.contains([String(Visa)])</text>
</g>
<!-- p21&#45;&#45;p22 -->
<g id="edge23" class="edge">
<title>p21--p22</title>
<path fill="none" stroke="black" d="M2797,-88.97C2797,-78.51 2797,-64.9 2797,-53.16"/>
</g>
</g>
</svg>