<svg xmlns="http://www.w3.org/2000/svg" xmlns:xlink="http://www.w3.org/1999/xlink" width="5626pt" height="349pt" viewBox="0.00 0.00 5626.00 349.00">
<g id="graph0" class="graph" transform="scale(1 1) rotate(0) translate(4 345)">
<title>polars_query</title>
<polygon fill="white" stroke="transparent" points="-4,4 -4,-345 5622,-345 5622,4 -4,4"/>
<!-- p1 -->
<g id="node1" class="node">
<title>p1</title>
<polygon fill="none" stroke="black" points="2998,-341 2620,-341 2620,-305 2998,-305 2998,-341"/>
<text text-anchor="middle" x="2809" y="-319.3" font-family="Times,serif" font-size="14.00">FILTER BY col(&quot;Name&quot;).str.contains([String(Visa)])</text>
</g>
<!-- p2 -->
<g id="node2" class="node">
<title>p2</title>
<polygon fill="none" stroke="black" points="5618,-269 0,-269 0,-233 5618,-233 5618,-269"/>
<text text-anchor="middle" x="2809" y="-247.3" font-family="Times,serif" font-size="14.00">WITH COLUMNS [when([(col(&quot;__POLARS_CSER_0xf91923ae915c343a&quot;).is_not_nan()) | (col(&quot;__POLARS_CSER_0xf91923ae915c343a&quot;).is_null())]).then(col(&quot;__POLARS_CSER_0xf91923ae915c343a&quot;)).otherwise(0.0).alias(&quot;SuccessRate&quot;), when([(col(&quot;Positives&quot;).min()) == (col(&quot;Positives&quot;).max())]).then(col(&quot;SnapshotTime&quot;).max()).otherwise(col(&quot;SnapshotTime&quot;).filter([(col(&quot;Positives&quot;).diff()) != (0.0)]).max()).over([col(&quot;ModelID&quot;)]).alias(&quot;Last_Positives&quot;), when([(col(&quot;ResponseCount&quot;).min()) == (col(&quot;ResponseCount&quot;).max())]).then(col(&quot;SnapshotTime&quot;).max()).otherwise(col(&quot;SnapshotTime&quot;).filter([(col(&quot;ResponseCount&quot;).diff()) != (0.0)]).max()).over([col(&quot;ModelID&quot;)]).alias(&quot;Last_ResponseCount&quot;), [(col(&quot;Positives&quot;)) / (col(&quot;ResponseCount&quot;))].alias(&quot;__POLARS_CSER_0xf91923ae915c343a&quot;)]</text>
</g>
<!-- p1&#45;&#45;p2 -->
<g id="edge1" class="edge">
<title>p1--p2</title>
<path fill="none" stroke="black" d="M2809,-304.7C2809,-293.85 2809,-279.92 2809,-269.1"/>
</g>
<!-- p3 -->
<g id="node3" class="node">
<title>p3</title>
<polygon fill="none" stroke="black" points="5214,-197 404,-197 404,-161 5214,-161 5214,-197"/>
<text text-anchor="middle" x="2809" y="-175.3" font-family="Times,serif" font-size="14.00">WITH COLUMNS [col(&quot;ResponseCount&quot;).strict_cast(Float32), col(&quot;Group&quot;).strict_cast(Categorical(None, Physical)), col(&quot;Positives&quot;).strict_cast(Float32), when([(col(&quot;SnapshotTime&quot;).str.slice([dyn int: 4, dyn int: 1])) == (String(-))]).then(col(&quot;SnapshotTime&quot;).str.strptime([String(raise)]).dt.cast_time_unit()).otherwise(col(&quot;SnapshotTime&quot;).str.strptime([String(raise)]).dt.replace_time_zone([String(raise)]).dt.cast_time_unit()).alias(&quot;SnapshotTime&quot;), col(&quot;Configuration&quot;).strict_cast(Categorical(None, Physical)), col(&quot;Channel&quot;).strict_cast(Categorical(None, Physical)), col(&quot;Direction&quot;).strict_cast(Categorical(None, Physical)), col(&quot;Issue&quot;).strict_cast(Categorical(None, Physical))]</text>
</g>
<!-- p2&#45;&#45;p3 -->
<g id="edge2" class="edge">
<title>p2--p3</title>
<path fill="none" stroke="black" d="M2809,-232.7C2809,-221.85 2809,-207.92 2809,-197.1"/>
</g>
<!-- p4 -->
<g id="node4" class="node">
<title>p4</title>
<polygon fill="none" stroke="black" points="2851,-125 2767,-125 2767,-89 2851,-89 2851,-125"/>
<text text-anchor="middle" x="2809" y="-103.3" font-family="Times,serif" font-size="14.00">RENAME</text>
</g>
<!-- p3&#45;&#45;p4 -->
<g id="edge3" class="edge">
<title>p3--p4</title>
<path fill="none" stroke="black" d="M2809,-160.7C2809,-149.85 2809,-135.92 2809,-125.1"/>
</g>
<!-- p5 -->
<g id="node5" class="node">
<title>p5</title>
<polygon fill="none" stroke="black" points="2964.5,-53 2653.5,-53 2653.5,0 2964.5,0 2964.5,-53"/>
<text text-anchor="middle" x="2809" y="-37.8" font-family="Times,serif" font-size="14.00">TABLE</text>
<text text-anchor="middle" x="2809" y="-22.8" font-family="Times,serif" font-size="14.00">π 12/27;</text>
<text text-anchor="middle" x="2809" y="-7.8" font-family="Times,serif" font-size="14.00">σ col(&quot;Name&quot;).str.contains([String(Visa)])</text>
</g>
<!-- p4&#45;&#45;p5 -->
<g id="edge4" class="edge">
<title>p4--p5</title>
<path fill="none" stroke="black" d="M2809,-88.97C2809,-78.51 2809,-64.9 2809,-53.16"/>
</g>
</g>
</svg>