<svg xmlns="http://www.w3.org/2000/svg" xmlns:xlink="http://www.w3.org/1999/xlink" width="5635pt" height="349pt" viewBox="0.00 0.00 5635.00 349.00">
<g id="graph0" class="graph" transform="scale(1 1) rotate(0) translate(4 345)">
<title>polars_query</title>
<polygon fill="white" stroke="transparent" points="-4,4 -4,-345 5631,-345 5631,4 -4,4"/>
<!-- p1 -->
<g id="node1" class="node">
<title>p1</title>
<polygon fill="none" stroke="black" points="3002.5,-341 2624.5,-341 2624.5,-305 3002.5,-305 3002.5,-341"/>
<text text-anchor="middle" x="2813.5" y="-319.3" font-family="Times,serif" font-size="14.00">FILTER BY col(&quot;Name&quot;).str.contains([String(Visa)])</text>
</g>
<!-- p2 -->
<g id="node2" class="node">
<title>p2</title>
<polygon fill="none" stroke="black" points="5627,-269 0,-269 0,-233 5627,-233 5627,-269"/>
<text text-anchor="middle" x="2813.5" y="-247.3" font-family="Times,serif" font-size="14.00">WITH COLUMNS [when([(col(&quot;__POLARS_CSER_0xc67b95d38378526f&quot;).is_not_nan()) | (col(&quot;__POLARS_CSER_0xc67b95d38378526f&quot;).is_null())]).then(col(&quot;__POLARS_CSER_0xc67b95d38378526f&quot;)).otherwise(0.0).alias(&quot;SuccessRate&quot;), when([(col(&quot;Positives&quot;).min()) == (col(&quot;Positives&quot;).max())]).then(col(&quot;SnapshotTime&quot;).max()).otherwise(col(&quot;SnapshotTime&quot;).filter([(col(&quot;Positives&quot;).diff()) != (0.0)]).max()).over([col(&quot;ModelID&quot;)]).alias(&quot;Last_Positives&quot;), when([(col(&quot;ResponseCount&quot;).min()) == (col(&quot;ResponseCount&quot;).max())]).then(col(&quot;SnapshotTime&quot;).max()).otherwise(col(&quot;SnapshotTime&quot;).filter([(col(&quot;ResponseCount&quot;).diff()) != (0.0)]).max()).over([col(&quot;ModelID&quot;)]).alias(&quot;Last_ResponseCount&quot;), [(col(&quot;Positives&quot;)) / (col(&quot;ResponseCount&quot;))].alias(&quot;__POLARS_CSER_0xc67b95d38378526f&quot;)]</text>
</g>
<!-- p1&#45;&#45;p2 -->
<g id="edge1" class="edge">
<title>p1--p2</title>
<path fill="none" stroke="black" d="M2813.5,-304.7C2813.5,-293.85 2813.5,-279.92 2813.5,-269.1"/>
</g>
<!-- p3 -->
<g id="node3" class="node">
<title>p3</title>
<polygon fill="none" stroke="black" points="5218.5,-197 408.5,-197 408.5,-161 5218.5,-161 5218.5,-197"/>
<text text-anchor="middle" x="2813.5" y="-175.3" font-family="Times,serif" font-size="14.00">WITH COLUMNS [col(&quot;Positives&quot;).strict_cast(Float32), col(&quot;Direction&quot;).strict_cast(Categorical(None, Physical)), col(&quot;Configuration&quot;).strict_cast(Categorical(None, Physical)), when([(col(&quot;SnapshotTime&quot;).str.slice([dyn int: 4, dyn int: 1])) == (String(-))]).then(col(&quot;SnapshotTime&quot;).str.strptime([String(raise)]).dt.cast_time_unit()).otherwise(col(&quot;SnapshotTime&quot;).str.strptime([String(raise)]).dt.replace_time_zone([String(raise)]).dt.cast_time_unit()).alias(&quot;SnapshotTime&quot;), col(&quot;Issue&quot;).strict_cast(Categorical(None, Physical)), col(&quot;ResponseCount&quot;).strict_cast(Float32), col(&quot;Group&quot;).strict_cast(Categorical(None, Physical)), col(&quot;Channel&quot;).strict_cast(Categorical(None, Physical))]</text>
</g>
<!-- p2&#45;&#45;p3 -->
<g id="edge2" class="edge">
<title>p2--p3</title>
<path fill="none" stroke="black" d="M2813.5,-232.7C2813.5,-221.85 2813.5,-207.92 2813.5,-197.1"/>
</g>
<!-- p4 -->
<g id="node4" class="node">
<title>p4</title>
<polygon fill="none" stroke="black" points="2855.5,-125 2771.5,-125 2771.5,-89 2855.5,-89 2855.5,-125"/>
<text text-anchor="middle" x="2813.5" y="-103.3" font-family="Times,serif" font-size="14.00">RENAME</text>
</g>
<!-- p3&#45;&#45;p4 -->
<g id="edge3" class="edge">
<title>p3--p4</title>
<path fill="none" stroke="black" d="M2813.5,-160.7C2813.5,-149.85 2813.5,-135.92 2813.5,-125.1"/>
</g>
<!-- p5 -->
<g id="node5" class="node">
<title>p5</title>
<polygon fill="none" stroke="black" points="2969,-53 2658,-53 2658,0 2969,0 2969,-53"/>
<text text-anchor="middle" x="2813.5" y="-37.8" font-family="Times,serif" font-size="14.00">TABLE</text>
<text text-anchor="middle" x="2813.5" y="-22.8" font-family="Times,serif" font-size="14.00">π 12/27;</text>
<text text-anchor="middle" x="2813.5" y="-7.8" font-family="Times,serif" font-size="14.00">σ col(&quot;Name&quot;).str.contains([String(Visa)])</text>
</g>
<!-- p4&#45;&#45;p5 -->
<g id="edge4" class="edge">
<title>p4--p5</title>
<path fill="none" stroke="black" d="M2813.5,-88.97C2813.5,-78.51 2813.5,-64.9 2813.5,-53.16"/>
</g>
</g>
</svg>