<svg xmlns="http://www.w3.org/2000/svg" xmlns:xlink="http://www.w3.org/1999/xlink" width="11276pt" height="1128pt" viewBox="0.00 0.00 11276.00 1128.00">
<g id="graph0" class="graph" transform="scale(1 1) rotate(0) translate(4 1124)">
<title>polars_query</title>
<polygon fill="white" stroke="transparent" points="-4,4 -4,-1124 11272,-1124 11272,4 -4,4"/>
<!-- p1 -->
<g id="node1" class="node">
<title>p1</title>
<polygon fill="none" stroke="black" points="5543,-1120 5367,-1120 5367,-1067 5543,-1067 5543,-1120"/>
<text text-anchor="middle" x="5455" y="-1104.8" font-family="Times,serif" font-size="14.00">JOIN INNER</text>
<text text-anchor="middle" x="5455" y="-1089.8" font-family="Times,serif" font-size="14.00">left: [col(&quot;ModelID&quot;)];</text>
<text text-anchor="middle" x="5455" y="-1074.8" font-family="Times,serif" font-size="14.00">right: [col(&quot;ModelID&quot;)]</text>
</g>
<!-- p2 -->
<g id="node2" class="node">
<title>p2</title>
<polygon fill="none" stroke="black" points="5613.5,-950.5 4770.5,-950.5 4770.5,-914.5 5613.5,-914.5 5613.5,-950.5"/>
<text text-anchor="middle" x="5192" y="-928.8" font-family="Times,serif" font-size="14.00">FILTER BY [(col(&quot;SnapshotTime&quot;).fill_null_with_strategy()) == (col(&quot;SnapshotTime&quot;).fill_null_with_strategy().max())]</text>
</g>
<!-- p1&#45;&#45;p2 -->
<g id="edge1" class="edge">
<title>p1--p2</title>
<path fill="none" stroke="black" d="M5366.73,-1074.97C5333.73,-1065.57 5297.21,-1051.55 5268,-1031 5237.64,-1009.63 5213.6,-972.62 5201.21,-950.86"/>
</g>
<!-- p12 -->
<g id="node13" class="node">
<title>p12</title>
<polygon fill="none" stroke="black" points="6120.5,-1031 5277.5,-1031 5277.5,-995 6120.5,-995 6120.5,-1031"/>
<text text-anchor="middle" x="5699" y="-1009.3" font-family="Times,serif" font-size="14.00">FILTER BY [(col(&quot;SnapshotTime&quot;).fill_null_with_strategy()) == (col(&quot;SnapshotTime&quot;).fill_null_with_strategy().max())]</text>
</g>
<!-- p1&#45;&#45;p12 -->
<g id="edge12" class="edge">
<title>p1--p12</title>
<path fill="none" stroke="black" d="M5534.56,-1066.9C5571.13,-1055.14 5613.52,-1041.5 5646.1,-1031.02"/>
</g>
<!-- c0 -->
<g id="node3" class="node">
<title>c0</title>
<polygon fill="none" stroke="black" points="5258,-722 5126,-722 5126,-686 5258,-686 5258,-722"/>
<text text-anchor="middle" x="5192" y="-700.3" font-family="Times,serif" font-size="14.00">CACHE: 1 times</text>
</g>
<!-- p2&#45;&#45;c0 -->
<g id="edge2" class="edge">
<title>p2--c0</title>
<path fill="none" stroke="black" d="M5192,-914.48C5192,-872.5 5192,-764.4 5192,-722.22"/>
</g>
<!-- p3 -->
<g id="node4" class="node">
<title>p3</title>
<polygon fill="none" stroke="black" points="5364,-650 5020,-650 5020,-612 5364,-612 5364,-650"/>
<text text-anchor="middle" x="5192" y="-634.8" font-family="Times,serif" font-size="14.00">simple π 15/15</text>
<text text-anchor="middle" x="5192" y="-619.8" font-family="Times,serif" font-size="14.00">[&quot;Direction&quot;, &quot;Positives&quot;, ... 13 other columns]</text>
</g>
<!-- c0&#45;&#45;p3 -->
<g id="edge3" class="edge">
<title>c0--p3</title>
<path fill="none" stroke="black" d="M5192,-685.81C5192,-674.98 5192,-661.01 5192,-650.02"/>
</g>
<!-- p22 -->
<g id="node23" class="node">
<title>p22</title>
<polygon fill="none" stroke="black" points="4173,-650 3829,-650 3829,-612 4173,-612 4173,-650"/>
<text text-anchor="middle" x="4001" y="-634.8" font-family="Times,serif" font-size="14.00">simple π 15/15</text>
<text text-anchor="middle" x="4001" y="-619.8" font-family="Times,serif" font-size="14.00">[&quot;Direction&quot;, &quot;Positives&quot;, ... 13 other columns]</text>
</g>
<!-- c0&#45;&#45;p22 -->
<g id="edge23" class="edge">
<title>c0--p22</title>
<path fill="none" stroke="black" d="M5125.84,-699.06C4945.49,-688.3 4440.84,-658.22 4173.02,-642.25"/>
</g>
<!-- p4 -->
<g id="node5" class="node">
<title>p4</title>
<polygon fill="none" stroke="black" points="6823,-576 6445,-576 6445,-540 6823,-540 6823,-576"/>
<text text-anchor="middle" x="6634" y="-554.3" font-family="Times,serif" font-size="14.00">FILTER BY col(&quot;Name&quot;).str.contains([String(Visa)])</text>
</g>
<!-- p3&#45;&#45;p4 -->
<g id="edge4" class="edge">
<title>p3--p4</title>
<path fill="none" stroke="black" d="M5364.43,-612.62C5367.31,-612.41 5370.16,-612.2 5373,-612 5752.77,-585.16 6197.91,-570.34 6444.74,-563.58"/>
</g>
<!-- p5 -->
<g id="node6" class="node">
<title>p5</title>
<polygon fill="none" stroke="black" points="7221,-496.5 6877,-496.5 6877,-458.5 7221,-458.5 7221,-496.5"/>
<text text-anchor="middle" x="7049" y="-481.3" font-family="Times,serif" font-size="14.00">simple π 15/16</text>
<text text-anchor="middle" x="7049" y="-466.3" font-family="Times,serif" font-size="14.00">[&quot;Direction&quot;, &quot;Positives&quot;, ... 13 other columns]</text>
</g>
<!-- p4&#45;&#45;p5 -->
<g id="edge5" class="edge">
<title>p4--p5</title>
<path fill="none" stroke="black" d="M6724.05,-539.97C6791.87,-527.14 6884.65,-509.59 6953.72,-496.52"/>
</g>
<!-- p6 -->
<g id="node7" class="node">
<title>p6</title>
<polygon fill="none" stroke="black" points="9946,-415 4982,-415 4982,-379 9946,-379 9946,-415"/>
<text text-anchor="middle" x="7464" y="-393.3" font-family="Times,serif" font-size="14.00">WITH COLUMNS [when([(col(&quot;__POLARS_CSER_0xf01ae0940786b317&quot;).is_not_nan()) | (col(&quot;__POLARS_CSER_0xf01ae0940786b317&quot;).is_null())]).then(col(&quot;__POLARS_CSER_0xf01ae0940786b317&quot;)).otherwise(0.0).alias(&quot;SuccessRate&quot;), when([(col(&quot;Positives&quot;).min()) == (col(&quot;Positives&quot;).max())]).then(col(&quot;SnapshotTime&quot;).max()).otherwise(col(&quot;SnapshotTime&quot;).filter([(col(&quot;Positives&quot;).diff()) != (0.0)]).max()).over([col(&quot;ModelID&quot;)]).alias(&quot;Last_Positives&quot;), when([(col(&quot;ResponseCount&quot;).min()) == (col(&quot;ResponseCount&quot;).max())]).then(col(&quot;SnapshotTime&quot;).max()).otherwise(col(&quot;SnapshotTime&quot;).filter([(col(&quot;ResponseCount&quot;).diff()) != (0.0)]).max()).over([col(&quot;ModelID&quot;)]).alias(&quot;Last_ResponseCount&quot;)]</text>
</g>
<!-- p5&#45;&#45;p6 -->
<g id="edge6" class="edge">
<title>p5--p6</title>
<path fill="none" stroke="black" d="M7144.21,-458.49C7213.25,-445.43 7306.02,-427.88 7373.86,-415.05"/>
</g>
<!-- p7 -->
<g id="node8" class="node">
<title>p7</title>
<polygon fill="none" stroke="black" points="7868.5,-343 7059.5,-343 7059.5,-307 7868.5,-307 7868.5,-343"/>
<text text-anchor="middle" x="7464" y="-321.3" font-family="Times,serif" font-size="14.00">WITH COLUMNS [[(col(&quot;Positives&quot;)) / (col(&quot;ResponseCount&quot;))].alias(&quot;__POLARS_CSER_0xf01ae0940786b317&quot;)]</text>
</g>
<!-- p6&#45;&#45;p7 -->
<g id="edge7" class="edge">
<title>p6--p7</title>
<path fill="none" stroke="black" d="M7464,-378.7C7464,-367.85 7464,-353.92 7464,-343.1"/>
</g>
<!-- p8 -->
<g id="node9" class="node">
<title>p8</title>
<polygon fill="none" stroke="black" points="9869,-271 5059,-271 5059,-235 9869,-235 9869,-271"/>
<text text-anchor="middle" x="7464" y="-249.3" font-family="Times,serif" font-size="14.00">WITH COLUMNS [col(&quot;Direction&quot;).strict_cast(Categorical(None, Physical)), col(&quot;Positives&quot;).strict_cast(Float32), col(&quot;Group&quot;).strict_cast(Categorical(None, Physical)), col(&quot;Issue&quot;).strict_cast(Categorical(None, Physical)), when([(col(&quot;SnapshotTime&quot;).str.slice([dyn int: 4, dyn int: 1])) == (String(-))]).then(col(&quot;SnapshotTime&quot;).str.strptime([String(raise)]).dt.cast_time_unit()).otherwise(col(&quot;SnapshotTime&quot;).str.strptime([String(raise)]).dt.replace_time_zone([String(raise)]).dt.cast_time_unit()).alias(&quot;SnapshotTime&quot;), col(&quot;Configuration&quot;).strict_cast(Categorical(None, Physical)), col(&quot;Channel&quot;).strict_cast(Categorical(None, Physical)), col(&quot;ResponseCount&quot;).strict_cast(Float32)]</text>
</g>
<!-- p7&#45;&#45;p8 -->
<g id="edge8" class="edge">
<title>p7--p8</title>
<path fill="none" stroke="black" d="M7464,-306.7C7464,-295.85 7464,-281.92 7464,-271.1"/>
</g>
<!-- p9 -->
<g id="node10" class="node">
<title>p9</title>
<polygon fill="none" stroke="black" points="7636,-199 7292,-199 7292,-161 7636,-161 7636,-199"/>
<text text-anchor="middle" x="7464" y="-183.8" font-family="Times,serif" font-size="14.00">simple π 12/12</text>
<text text-anchor="middle" x="7464" y="-168.8" font-family="Times,serif" font-size="14.00">[&quot;Direction&quot;, &quot;Positives&quot;, ... 10 other columns]</text>
</g>
<!-- p8&#45;&#45;p9 -->
<g id="edge9" class="edge">
<title>p8--p9</title>
<path fill="none" stroke="black" d="M7464,-234.81C7464,-223.98 7464,-210.01 7464,-199.02"/>
</g>
<!-- p10 -->
<g id="node11" class="node">
<title>p10</title>
<polygon fill="none" stroke="black" points="7506,-125 7422,-125 7422,-89 7506,-89 7506,-125"/>
<text text-anchor="middle" x="7464" y="-103.3" font-family="Times,serif" font-size="14.00">RENAME</text>
</g>
<!-- p9&#45;&#45;p10 -->
<g id="edge10" class="edge">
<title>p9--p10</title>
<path fill="none" stroke="black" d="M7464,-160.72C7464,-149.7 7464,-135.78 7464,-125"/>
</g>
<!-- p11 -->
<g id="node12" class="node">
<title>p11</title>
<polygon fill="none" stroke="black" points="7619.5,-53 7308.5,-53 7308.5,0 7619.5,0 7619.5,-53"/>
<text text-anchor="middle" x="7464" y="-37.8" font-family="Times,serif" font-size="14.00">TABLE</text>
<text text-anchor="middle" x="7464" y="-22.8" font-family="Times,serif" font-size="14.00">π 12/27;</text>
<text text-anchor="middle" x="7464" y="-7.8" font-family="Times,serif" font-size="14.00">σ col(&quot;Name&quot;).str.contains([String(Visa)])</text>
</g>
<!-- p10&#45;&#45;p11 -->
<g id="edge11" class="edge">
<title>p10--p11</title>
<path fill="none" stroke="black" d="M7464,-88.97C7464,-78.51 7464,-64.9 7464,-53.16"/>
</g>
<!-- p13 -->
<g id="node14" class="node">
<title>p13</title>
<polygon fill="none" stroke="black" points="5807,-959 5631,-959 5631,-906 5807,-906 5807,-959"/>
<text text-anchor="middle" x="5719" y="-943.8" font-family="Times,serif" font-size="14.00">JOIN INNER</text>
<text text-anchor="middle" x="5719" y="-928.8" font-family="Times,serif" font-size="14.00">left: [col(&quot;ModelID&quot;)];</text>
<text text-anchor="middle" x="5719" y="-913.8" font-family="Times,serif" font-size="14.00">right: [col(&quot;ModelID&quot;)]</text>
</g>
<!-- p12&#45;&#45;p13 -->
<g id="edge13" class="edge">
<title>p12--p13</title>
<path fill="none" stroke="black" d="M5703.34,-994.97C5706.01,-984.51 5709.47,-970.9 5712.46,-959.16"/>
</g>
<!-- p14 -->
<g id="node15" class="node">
<title>p14</title>
<polygon fill="none" stroke="black" points="6849,-870 6475,-870 6475,-832 6849,-832 6849,-870"/>
<text text-anchor="middle" x="6662" y="-854.8" font-family="Times,serif" font-size="14.00">simple π 19/20</text>
<text text-anchor="middle" x="6662" y="-839.8" font-family="Times,serif" font-size="14.00">[&quot;Positives&quot;, &quot;BinNegatives&quot;, ... 17 other columns]</text>
</g>
<!-- p13&#45;&#45;p14 -->
<g id="edge14" class="edge">
<title>p13--p14</title>
<path fill="none" stroke="black" d="M5807.29,-924.06C5959.07,-911.26 6272.61,-884.83 6474.81,-867.78"/>
</g>
<!-- p20 -->
<g id="node21" class="node">
<title>p20</title>
<polygon fill="none" stroke="black" points="5461,-869 5407,-869 5407,-833 5461,-833 5461,-869"/>
<text text-anchor="middle" x="5434" y="-847.3" font-family="Times,serif" font-size="14.00">π 1/1</text>
</g>
<!-- p13&#45;&#45;p20 -->
<g id="edge20" class="edge">
<title>p13--p20</title>
<path fill="none" stroke="black" d="M5630.78,-906.89C5572.41,-890.61 5499.77,-870.35 5461.14,-859.57"/>
</g>
<!-- p15 -->
<g id="node16" class="node">
<title>p15</title>
<polygon fill="none" stroke="black" points="9034,-795 6176,-795 6176,-759 9034,-759 9034,-795"/>
<text text-anchor="middle" x="7605" y="-773.3" font-family="Times,serif" font-size="14.00">WITH COLUMNS [[(col(&quot;BinPositives&quot;)) / (col(&quot;BinResponseCount&quot;))].alias(&quot;BinPropensity&quot;), [([(col(&quot;BinPositives&quot;)) + (0.5)]) / ([(col(&quot;BinResponseCount&quot;)) + (1.0)])].alias(&quot;BinAdjustedPropensity&quot;), when([(col(&quot;__POLARS_CSER_0xa61bc624b618f5cd&quot;).list.length()) &gt; (1)]).then(col(&quot;__POLARS_CSER_0xa61bc624b618f5cd&quot;).list.get([dyn int: 0])).otherwise(String(Primary)).alias(&quot;PredictorCategory&quot;)]</text>
</g>
<!-- p14&#45;&#45;p15 -->
<g id="edge15" class="edge">
<title>p14--p15</title>
<path fill="none" stroke="black" d="M6849.15,-835.71C7002.47,-824 7219.83,-807.41 7382.13,-795.02"/>
</g>
<!-- p16 -->
<g id="node17" class="node">
<title>p16</title>
<polygon fill="none" stroke="black" points="8428,-722 7502,-722 7502,-686 8428,-686 8428,-722"/>
<text text-anchor="middle" x="7965" y="-700.3" font-family="Times,serif" font-size="14.00">WITH COLUMNS [col(&quot;PredictorName&quot;).strict_cast(String).str.split([String(.)]).alias(&quot;__POLARS_CSER_0xa61bc624b618f5cd&quot;)]</text>
</g>
<!-- p15&#45;&#45;p16 -->
<g id="edge16" class="edge">
<title>p15--p16</title>
<path fill="none" stroke="black" d="M7691.23,-758.99C7747.91,-747.81 7821.81,-733.24 7878.54,-722.05"/>
</g>
<!-- p17 -->
<g id="node18" class="node">
<title>p17</title>
<polygon fill="none" stroke="black" points="11268,-649 5382,-649 5382,-613 11268,-613 11268,-649"/>
<text text-anchor="middle" x="8325" y="-627.3" font-family="Times,serif" font-size="14.00">WITH COLUMNS [col(&quot;Positives&quot;).strict_cast(Float32), col(&quot;BinNegatives&quot;).strict_cast(Float32), col(&quot;BinType&quot;).strict_cast(Categorical(None, Physical)), col(&quot;BinIndex&quot;).strict_cast(UInt16), col(&quot;BinPositives&quot;).strict_cast(Float32), col(&quot;Type&quot;).strict_cast(Categorical(None, Physical)), when([(col(&quot;SnapshotTime&quot;).str.slice([dyn int: 4, dyn int: 1])) == (String(-))]).then(col(&quot;SnapshotTime&quot;).str.strptime([String(raise)]).dt.cast_time_unit()).otherwise(col(&quot;SnapshotTime&quot;).str.strptime([String(raise)]).dt.replace_time_zone([String(raise)]).dt.cast_time_unit()).alias(&quot;SnapshotTime&quot;), col(&quot;GroupIndex&quot;).strict_cast(UInt32), col(&quot;ResponseCount&quot;).strict_cast(Float32), col(&quot;BinResponseCount&quot;).strict_cast(Float32), col(&quot;PredictorName&quot;).strict_cast(Categorical(None, Physical)), col(&quot;EntryType&quot;).strict_cast(Categorical(None, Physical))]</text>
</g>
<!-- p16&#45;&#45;p17 -->
<g id="edge17" class="edge">
<title>p16--p17</title>
<path fill="none" stroke="black" d="M8051.23,-685.99C8107.91,-674.81 8181.81,-660.24 8238.54,-649.05"/>
</g>
<!-- p18 -->
<g id="node19" class="node">
<title>p18</title>
<polygon fill="none" stroke="black" points="8367,-576 8283,-576 8283,-540 8367,-540 8367,-576"/>
<text text-anchor="middle" x="8325" y="-554.3" font-family="Times,serif" font-size="14.00">RENAME</text>
</g>
<!-- p17&#45;&#45;p18 -->
<g id="edge18" class="edge">
<title>p17--p18</title>
<path fill="none" stroke="black" d="M8325,-612.81C8325,-601.65 8325,-587.16 8325,-576.03"/>
</g>
<!-- p19 -->
<g id="node20" class="node">
<title>p19</title>
<polygon fill="none" stroke="black" points="8362.5,-504 8287.5,-504 8287.5,-451 8362.5,-451 8362.5,-504"/>
<text text-anchor="middle" x="8325" y="-488.8" font-family="Times,serif" font-size="14.00">TABLE</text>
<text text-anchor="middle" x="8325" y="-473.8" font-family="Times,serif" font-size="14.00">π 16/36;</text>
<text text-anchor="middle" x="8325" y="-458.8" font-family="Times,serif" font-size="14.00">σ None</text>
</g>
<!-- p18&#45;&#45;p19 -->
<g id="edge19" class="edge">
<title>p18--p19</title>
<path fill="none" stroke="black" d="M8325,-539.97C8325,-529.51 8325,-515.9 8325,-504.16"/>
</g>
<!-- p21 -->
<g id="node22" class="node">
<title>p21</title>
<polygon fill="none" stroke="black" points="5438.5,-796 5325.5,-796 5325.5,-758 5438.5,-758 5438.5,-796"/>
<text text-anchor="middle" x="5382" y="-780.8" font-family="Times,serif" font-size="14.00">simple π 1/15</text>
<text text-anchor="middle" x="5382" y="-765.8" font-family="Times,serif" font-size="14.00">[&quot;ModelID&quot;]</text>
</g>
<!-- p20&#45;&#45;p21 -->
<g id="edge21" class="edge">
<title>p20--p21</title>
<path fill="none" stroke="black" d="M5421.68,-832.94C5413.69,-821.88 5403.29,-807.48 5395.14,-796.2"/>
</g>
<!-- p21&#45;&#45;c0 -->
<g id="edge22" class="edge">
<title>p21--c0</title>
<path fill="none" stroke="black" d="M5333.56,-757.9C5304.1,-746.89 5266.69,-732.91 5237.73,-722.09"/>
</g>
<!-- p23 -->
<g id="node24" class="node">
<title>p23</title>
<polygon fill="none" stroke="black" points="3322,-576 2944,-576 2944,-540 3322,-540 3322,-576"/>
<text text-anchor="middle" x="3133" y="-554.3" font-family="Times,serif" font-size="14.00">FILTER BY col(&quot;Name&quot;).str.contains([String(Visa)])</text>
</g>
<!-- p22&#45;&#45;p23 -->
<g id="edge24" class="edge">
<title>p22--p23</title>
<path fill="none" stroke="black" d="M3828.99,-615.93C3682.82,-603.97 3473.29,-586.83 3322.37,-574.49"/>
</g>
<!-- p24 -->
<g id="node25" class="node">
<title>p24</title>
<polygon fill="none" stroke="black" points="2871,-496.5 2527,-496.5 2527,-458.5 2871,-458.5 2871,-496.5"/>
<text text-anchor="middle" x="2699" y="-481.3" font-family="Times,serif" font-size="14.00">simple π 15/16</text>
<text text-anchor="middle" x="2699" y="-466.3" font-family="Times,serif" font-size="14.00">[&quot;Direction&quot;, &quot;Positives&quot;, ... 13 other columns]</text>
</g>
<!-- p23&#45;&#45;p24 -->
<g id="edge25" class="edge">
<title>p23--p24</title>
<path fill="none" stroke="black" d="M3038.83,-539.97C2967.9,-527.14 2870.87,-509.59 2798.65,-496.52"/>
</g>
<!-- p25 -->
<g id="node26" class="node">
<title>p25</title>
<polygon fill="none" stroke="black" points="4964,-415 0,-415 0,-379 4964,-379 4964,-415"/>
<text text-anchor="middle" x="2482" y="-393.3" font-family="Times,serif" font-size="14.00">WITH COLUMNS [when([(col(&quot;__POLARS_CSER_0xf01ae0940786b317&quot;).is_not_nan()) | (col(&quot;__POLARS_CSER_0xf01ae0940786b317&quot;).is_null())]).then(col(&quot;__POLARS_CSER_0xf01ae0940786b317&quot;)).otherwise(0.0).alias(&quot;SuccessRate&quot;), when([(col(&quot;Positives&quot;).min()) == (col(&quot;Positives&quot;).max())]).then(col(&quot;SnapshotTime&quot;).max()).otherwise(col(&quot;SnapshotTime&quot;).filter([(col(&quot;Positives&quot;).diff()) != (0.0)]).max()).over([col(&quot;ModelID&quot;)]).alias(&quot;Last_Positives&quot;), when([(col(&quot;ResponseCount&quot;).min()) == (col(&quot;ResponseCount&quot;).max())]).then(col(&quot;SnapshotTime&quot;).max()).otherwise(col(&quot;SnapshotTime&quot;).filter([(col(&quot;ResponseCount&quot;).diff()) != (0.0)]).max()).over([col(&quot;ModelID&quot;)]).alias(&quot;Last_ResponseCount&quot;)]</text>
</g>
<!-- p24&#45;&#45;p25 -->
<g id="edge26" class="edge">
<title>p24--p25</title>
<path fill="none" stroke="black" d="M2649.22,-458.49C2613.18,-445.45 2564.78,-427.94 2529.32,-415.12"/>
</g>
<!-- p26 -->
<g id="node27" class="node">
<title>p26</title>
<polygon fill="none" stroke="black" points="2886.5,-343 2077.5,-343 2077.5,-307 2886.5,-307 2886.5,-343"/>
<text text-anchor="middle" x="2482" y="-321.3" font-family="Times,serif" font-size="14.00">WITH COLUMNS [[(col(&quot;Positives&quot;)) / (col(&quot;ResponseCount&quot;))].alias(&quot;__POLARS_CSER_0xf01ae0940786b317&quot;)]</text>
</g>
<!-- p25&#45;&#45;p26 -->
<g id="edge27" class="edge">
<title>p25--p26</title>
<path fill="none" stroke="black" d="M2482,-378.7C2482,-367.85 2482,-353.92 2482,-343.1"/>
</g>
<!-- p27 -->
<g id="node28" class="node">
<title>p27</title>
<polygon fill="none" stroke="black" points="4887,-271 77,-271 77,-235 4887,-235 4887,-271"/>
<text text-anchor="middle" x="2482" y="-249.3" font-family="Times,serif" font-size="14.00">WITH COLUMNS [col(&quot;Direction&quot;).strict_cast(Categorical(None, Physical)), col(&quot;Positives&quot;).strict_cast(Float32), col(&quot;Group&quot;).strict_cast(Categorical(None, Physical)), col(&quot;Issue&quot;).strict_cast(Categorical(None, Physical)), when([(col(&quot;SnapshotTime&quot;).str.slice([dyn int: 4, dyn int: 1])) == (String(-))]).then(col(&quot;SnapshotTime&quot;).str.strptime([String(raise)]).dt.cast_time_unit()).otherwise(col(&quot;SnapshotTime&quot;).str.strptime([String(raise)]).dt.replace_time_zone([String(raise)]).dt.cast_time_unit()).alias(&quot;SnapshotTime&quot;), col(&quot;Configuration&quot;).strict_cast(Categorical(None, Physical)), col(&quot;Channel&quot;).strict_cast(Categorical(None, Physical)), col(&quot;ResponseCount&quot;).strict_cast(Float32)]</text>
</g>
<!-- p26&#45;&#45;p27 -->
<g id="edge28" class="edge">
<title>p26--p27</title>
<path fill="none" stroke="black" d="M2482,-306.7C2482,-295.85 2482,-281.92 2482,-271.1"/>
</g>
<!-- p28 -->
<g id="node29" class="node">
<title>p28</title>
<polygon fill="none" stroke="black" points="2654,-199 2310,-199 2310,-161 2654,-161 2654,-199"/>
<text text-anchor="middle" x="2482" y="-183.8" font-family="Times,serif" font-size="14.00">simple π 12/12</text>
<text text-anchor="middle" x="2482" y="-168.8" font-family="Times,serif" font-size="14.00">[&quot;Direction&quot;, &quot;Positives&quot;, ... 10 other columns]</text>
</g>
<!-- p27&#45;&#45;p28 -->
<g id="edge29" class="edge">
<title>p27--p28</title>
<path fill="none" stroke="black" d="M2482,-234.81C2482,-223.98 2482,-210.01 2482,-199.02"/>
</g>
<!-- p29 -->
<g id="node30" class="node">
<title>p29</title>
<polygon fill="none" stroke="black" points="2524,-125 2440,-125 2440,-89 2524,-89 2524,-125"/>
<text text-anchor="middle" x="2482" y="-103.3" font-family="Times,serif" font-size="14.00">RENAME</text>
</g>
<!-- p28&#45;&#45;p29 -->
<g id="edge30" class="edge">
<title>p28--p29</title>
<path fill="none" stroke="black" d="M2482,-160.72C2482,-149.7 2482,-135.78 2482,-125"/>
</g>
<!-- p30 -->
<g id="node31" class="node">
<title>p30</title>
<polygon fill="none" stroke="black" points="2637.5,-53 2326.5,-53 2326.5,0 2637.5,0 2637.5,-53"/>
<text text-anchor="middle" x="2482" y="-37.8" font-family="Times,serif" font-size="14.00">TABLE</text>
<text text-anchor="middle" x="2482" y="-22.8" font-family="Times,serif" font-size="14.00">π 12/27;</text>
<text text-anchor="middle" x="2482" y="-7.8" font-family="Times,serif" font-size="14.00">σ col(&quot;Name&quot;).str.contains([String(Visa)])</text>
</g>
<!-- p29&#45;&#45;p30 -->
<g id="edge31" class="edge">
<title>p29--p30</title>
<path fill="none" stroke="black" d="M2482,-88.97C2482,-78.51 2482,-64.9 2482,-53.16"/>
</g>
</g>
</svg>