<svg xmlns="http://www.w3.org/2000/svg" xmlns:xlink="http://www.w3.org/1999/xlink" width="4972pt" height="495pt" viewBox="0.00 0.00 4972.00 495.00">
<g id="graph0" class="graph" transform="scale(1 1) rotate(0) translate(4 491)">
<title>polars_query</title>
<polygon fill="white" stroke="transparent" points="-4,4 -4,-491 4968,-491 4968,4 -4,4"/>
<!-- p1 -->
<g id="node1" class="node">
<title>p1</title>
<polygon fill="none" stroke="black" points="2671,-487 2293,-487 2293,-451 2671,-451 2671,-487"/>
<text text-anchor="middle" x="2482" y="-465.3" font-family="Times,serif" font-size="14.00">FILTER BY col(&quot;Name&quot;).str.contains([String(Visa)])</text>
</g>
<!-- p2 -->
<g id="node2" class="node">
<title>p2</title>
<polygon fill="none" stroke="black" points="2654,-415 2310,-415 2310,-377 2654,-377 2654,-415"/>
<text text-anchor="middle" x="2482" y="-399.8" font-family="Times,serif" font-size="14.00">simple π 15/16</text>
<text text-anchor="middle" x="2482" y="-384.8" font-family="Times,serif" font-size="14.00">[&quot;Direction&quot;, &quot;Positives&quot;, ... 13 other columns]</text>
</g>
<!-- p1&#45;&#45;p2 -->
<g id="edge1" class="edge">
<title>p1--p2</title>
<path fill="none" stroke="black" d="M2482,-450.81C2482,-439.98 2482,-426.01 2482,-415.02"/>
</g>
<!-- p3 -->
<g id="node3" class="node">
<title>p3</title>
<polygon fill="none" stroke="black" points="4964,-341 0,-341 0,-305 4964,-305 4964,-341"/>
<text text-anchor="middle" x="2482" y="-319.3" font-family="Times,serif" font-size="14.00">WITH COLUMNS [when([(col(&quot;__POLARS_CSER_0xf01ae0940786b317&quot;).is_not_nan()) | (col(&quot;__POLARS_CSER_0xf01ae0940786b317&quot;).is_null())]).then(col(&quot;__POLARS_CSER_0xf01ae0940786b317&quot;)).otherwise(0.0).alias(&quot;SuccessRate&quot;), when([(col(&quot;Positives&quot;).min()) == (col(&quot;Positives&quot;).max())]).then(col(&quot;SnapshotTime&quot;).max()).otherwise(col(&quot;SnapshotTime&quot;).filter([(col(&quot;Positives&quot;).diff()) != (0.0)]).max()).over([col(&quot;ModelID&quot;)]).alias(&quot;Last_Positives&quot;), when([(col(&quot;ResponseCount&quot;).min()) == (col(&quot;ResponseCount&quot;).max())]).then(col(&quot;SnapshotTime&quot;).max()).otherwise(col(&quot;SnapshotTime&quot;).filter([(col(&quot;ResponseCount&quot;).diff()) != (0.0)]).max()).over([col(&quot;ModelID&quot;)]).alias(&quot;Last_ResponseCount&quot;)]</text>
</g>
<!-- p2&#45;&#45;p3 -->
<g id="edge2" class="edge">
<title>p2--p3</title>
<path fill="none" stroke="black" d="M2482,-376.72C2482,-365.7 2482,-351.78 2482,-341"/>
</g>
<!-- p4 -->
<g id="node4" class="node">
<title>p4</title>
<polygon fill="none" stroke="black" points="2886.5,-269 2077.5,-269 2077.5,-233 2886.5,-233 2886.5,-269"/>
<text text-anchor="middle" x="2482" y="-247.3" font-family="Times,serif" font-size="14.00">WITH COLUMNS [[(col(&quot;Positives&quot;)) / (col(&quot;ResponseCount&quot;))].alias(&quot;__POLARS_CSER_0xf01ae0940786b317&quot;)]</text>
</g>
<!-- p3&#45;&#45;p4 -->
<g id="edge3" class="edge">
<title>p3--p4</title>
<path fill="none" stroke="black" d="M2482,-304.7C2482,-293.85 2482,-279.92 2482,-269.1"/>
</g>
<!-- p5 -->
<g id="node5" class="node">
<title>p5</title>
<polygon fill="none" stroke="black" points="4887,-197 77,-197 77,-161 4887,-161 4887,-197"/>
<text text-anchor="middle" x="2482" y="-175.3" font-family="Times,serif" font-size="14.00">WITH COLUMNS [col(&quot;Direction&quot;).strict_cast(Categorical(None, Physical)), col(&quot;Positives&quot;).strict_cast(Float32), col(&quot;Group&quot;).strict_cast(Categorical(None, Physical)), col(&quot;Issue&quot;).strict_cast(Categorical(None, Physical)), when([(col(&quot;SnapshotTime&quot;).str.slice([dyn int: 4, dyn int: 1])) == (String(-))]).then(col(&quot;SnapshotTime&quot;).str.strptime([String(raise)]).dt.cast_time_unit()).otherwise(col(&quot;SnapshotTime&quot;).str.strptime([String(raise)]).dt.replace_time_zone([String(raise)]).dt.cast_time_unit()).alias(&quot;SnapshotTime&quot;), col(&quot;Configuration&quot;).strict_cast(Categorical(None, Physical)), col(&quot;Channel&quot;).strict_cast(Categorical(None, Physical)), col(&quot;ResponseCount&quot;).strict_cast(Float32)]</text>
</g>
<!-- p4&#45;&#45;p5 -->
<g id="edge4" class="edge">
<title>p4--p5</title>
<path fill="none" stroke="black" d="M2482,-232.7C2482,-221.85 2482,-207.92 2482,-197.1"/>
</g>
<!-- p6 -->
<g id="node6" class="node">
<title>p6</title>
<polygon fill="none" stroke="black" points="2524,-125 2440,-125 2440,-89 2524,-89 2524,-125"/>
<text text-anchor="middle" x="2482" y="-103.3" font-family="Times,serif" font-size="14.00">RENAME</text>
</g>
<!-- p5&#45;&#45;p6 -->
<g id="edge5" class="edge">
<title>p5--p6</title>
<path fill="none" stroke="black" d="M2482,-160.7C2482,-149.85 2482,-135.92 2482,-125.1"/>
</g>
<!-- p7 -->
<g id="node7" class="node">
<title>p7</title>
<polygon fill="none" stroke="black" points="2637.5,-53 2326.5,-53 2326.5,0 2637.5,0 2637.5,-53"/>
<text text-anchor="middle" x="2482" y="-37.8" font-family="Times,serif" font-size="14.00">TABLE</text>
<text text-anchor="middle" x="2482" y="-22.8" font-family="Times,serif" font-size="14.00">π 12/27;</text>
<text text-anchor="middle" x="2482" y="-7.8" font-family="Times,serif" font-size="14.00">σ col(&quot;Name&quot;).str.contains([String(Visa)])</text>
</g>
<!-- p6&#45;&#45;p7 -->
<g id="edge6" class="edge">
<title>p6--p7</title>
<path fill="none" stroke="black" d="M2482,-88.97C2482,-78.51 2482,-64.9 2482,-53.16"/>
</g>
</g>
</svg>