<svg xmlns="http://www.w3.org/2000/svg" xmlns:xlink="http://www.w3.org/1999/xlink" width="4966pt" height="423pt" viewBox="0.00 0.00 4966.00 423.00">
<g id="graph0" class="graph" transform="scale(1 1) rotate(0) translate(4 419)">
<title>polars_query</title>
<polygon fill="white" stroke="transparent" points="-4,4 -4,-419 4962,-419 4962,4 -4,4"/>
<!-- p1 -->
<g id="node1" class="node">
<title>p1</title>
<polygon fill="none" stroke="black" points="2654,-415 2304,-415 2304,-377 2654,-377 2654,-415"/>
<text text-anchor="middle" x="2479" y="-399.8" font-family="Times,serif" font-size="14.00">simple π 15/16</text>
<text text-anchor="middle" x="2479" y="-384.8" font-family="Times,serif" font-size="14.00">[&quot;Group&quot;, &quot;Performance&quot;, ... 13 other columns]</text>
</g>
<!-- p2 -->
<g id="node2" class="node">
<title>p2</title>
<polygon fill="none" stroke="black" points="4958,-341 0,-341 0,-305 4958,-305 4958,-341"/>
<text text-anchor="middle" x="2479" y="-319.3" font-family="Times,serif" font-size="14.00">WITH COLUMNS [when([(col(&quot;__POLARS_CSER_0xe0bdac27d38af690&quot;).is_not_nan()) | (col(&quot;__POLARS_CSER_0xe0bdac27d38af690&quot;).is_null())]).then(col(&quot;__POLARS_CSER_0xe0bdac27d38af690&quot;)).otherwise(0.0).alias(&quot;SuccessRate&quot;), when([(col(&quot;Positives&quot;).min()) == (col(&quot;Positives&quot;).max())]).then(col(&quot;SnapshotTime&quot;).max()).otherwise(col(&quot;SnapshotTime&quot;).filter([(col(&quot;Positives&quot;).diff()) != (0.0)]).max()).over([col(&quot;ModelID&quot;)]).alias(&quot;Last_Positives&quot;), when([(col(&quot;ResponseCount&quot;).min()) == (col(&quot;ResponseCount&quot;).max())]).then(col(&quot;SnapshotTime&quot;).max()).otherwise(col(&quot;SnapshotTime&quot;).filter([(col(&quot;ResponseCount&quot;).diff()) != (0.0)]).max()).over([col(&quot;ModelID&quot;)]).alias(&quot;Last_ResponseCount&quot;)]</text>
</g>
<!-- p1&#45;&#45;p2 -->
<g id="edge1" class="edge">
<title>p1--p2</title>
<path fill="none" stroke="black" d="M2479,-376.72C2479,-365.7 2479,-351.78 2479,-341"/>
</g>
<!-- p3 -->
<g id="node3" class="node">
<title>p3</title>
<polygon fill="none" stroke="black" points="2882,-269 2076,-269 2076,-233 2882,-233 2882,-269"/>
<text text-anchor="middle" x="2479" y="-247.3" font-family="Times,serif" font-size="14.00">WITH COLUMNS [[(col(&quot;Positives&quot;)) / (col(&quot;ResponseCount&quot;))].alias(&quot;__POLARS_CSER_0xe0bdac27d38af690&quot;)]</text>
</g>
<!-- p2&#45;&#45;p3 -->
<g id="edge2" class="edge">
<title>p2--p3</title>
<path fill="none" stroke="black" d="M2479,-304.7C2479,-293.85 2479,-279.92 2479,-269.1"/>
</g>
<!-- p4 -->
<g id="node4" class="node">
<title>p4</title>
<polygon fill="none" stroke="black" points="4884,-197 74,-197 74,-161 4884,-161 4884,-197"/>
<text text-anchor="middle" x="2479" y="-175.3" font-family="Times,serif" font-size="14.00">WITH COLUMNS [col(&quot;Group&quot;).strict_cast(Categorical(None, Physical)), col(&quot;Direction&quot;).strict_cast(Categorical(None, Physical)), col(&quot;Issue&quot;).strict_cast(Categorical(None, Physical)), col(&quot;ResponseCount&quot;).strict_cast(Float32), when([(col(&quot;SnapshotTime&quot;).str.slice([dyn int: 4, dyn int: 1])) == (String(-))]).then(col(&quot;SnapshotTime&quot;).str.strptime([String(raise)]).dt.cast_time_unit()).otherwise(col(&quot;SnapshotTime&quot;).str.strptime([String(raise)]).dt.replace_time_zone([String(raise)]).dt.cast_time_unit()).alias(&quot;SnapshotTime&quot;), col(&quot;Positives&quot;).strict_cast(Float32), col(&quot;Channel&quot;).strict_cast(Categorical(None, Physical)), col(&quot;Configuration&quot;).strict_cast(Categorical(None, Physical))]</text>
</g>
<!-- p3&#45;&#45;p4 -->
<g id="edge3" class="edge">
<title>p3--p4</title>
<path fill="none" stroke="black" d="M2479,-232.7C2479,-221.85 2479,-207.92 2479,-197.1"/>
</g>
<!-- p5 -->
<g id="node5" class="node">
<title>p5</title>
<polygon fill="none" stroke="black" points="2521,-125 2437,-125 2437,-89 2521,-89 2521,-125"/>
<text text-anchor="middle" x="2479" y="-103.3" font-family="Times,serif" font-size="14.00">RENAME</text>
</g>
<!-- p4&#45;&#45;p5 -->
<g id="edge4" class="edge">
<title>p4--p5</title>
<path fill="none" stroke="black" d="M2479,-160.7C2479,-149.85 2479,-135.92 2479,-125.1"/>
</g>
<!-- p6 -->
<g id="node6" class="node">
<title>p6</title>
<polygon fill="none" stroke="black" points="2516.5,-53 2441.5,-53 2441.5,0 2516.5,0 2516.5,-53"/>
<text text-anchor="middle" x="2479" y="-37.8" font-family="Times,serif" font-size="14.00">TABLE</text>
<text text-anchor="middle" x="2479" y="-22.8" font-family="Times,serif" font-size="14.00">π 12/27;</text>
<text text-anchor="middle" x="2479" y="-7.8" font-family="Times,serif" font-size="14.00">σ None</text>
</g>
<!-- p5&#45;&#45;p6 -->
<g id="edge5" class="edge">
<title>p5--p6</title>
<path fill="none" stroke="black" d="M2479,-88.97C2479,-78.51 2479,-64.9 2479,-53.16"/>
</g>
</g>
</svg>