<svg xmlns="http://www.w3.org/2000/svg" xmlns:xlink="http://www.w3.org/1999/xlink" width="11274pt" height="906pt" viewBox="0.00 0.00 11274.00 906.00">
<g id="graph0" class="graph" transform="scale(1 1) rotate(0) translate(4 902)">
<title>polars_query</title>
<polygon fill="white" stroke="transparent" points="-4,4 -4,-902 11270,-902 11270,4 -4,4"/>
<!-- p1 -->
<g id="node1" class="node">
<title>p1</title>
<polygon fill="none" stroke="black" points="5240,-898 5064,-898 5064,-845 5240,-845 5240,-898"/>
<text text-anchor="middle" x="5152" y="-882.8" font-family="Times,serif" font-size="14.00">JOIN INNER</text>
<text text-anchor="middle" x="5152" y="-867.8" font-family="Times,serif" font-size="14.00">left: [col(&quot;ModelID&quot;)];</text>
<text text-anchor="middle" x="5152" y="-852.8" font-family="Times,serif" font-size="14.00">right: [col(&quot;ModelID&quot;)]</text>
</g>
<!-- p2 -->
<g id="node2" class="node">
<title>p2</title>
<polygon fill="none" stroke="black" points="5310.5,-728.5 4467.5,-728.5 4467.5,-692.5 5310.5,-692.5 5310.5,-728.5"/>
<text text-anchor="middle" x="4889" y="-706.8" font-family="Times,serif" font-size="14.00">FILTER BY [(col(&quot;SnapshotTime&quot;).fill_null_with_strategy()) == (col(&quot;SnapshotTime&quot;).fill_null_with_strategy().max())]</text>
</g>
<!-- p1&#45;&#45;p2 -->
<g id="edge1" class="edge">
<title>p1--p2</title>
<path fill="none" stroke="black" d="M5063.79,-852.66C5031.11,-843.24 4994.98,-829.29 4966,-809 4935.43,-787.6 4911.01,-750.6 4898.39,-728.85"/>
</g>
<!-- p9 -->
<g id="node10" class="node">
<title>p9</title>
<polygon fill="none" stroke="black" points="5817.5,-809 4974.5,-809 4974.5,-773 5817.5,-773 5817.5,-809"/>
<text text-anchor="middle" x="5396" y="-787.3" font-family="Times,serif" font-size="14.00">FILTER BY [(col(&quot;SnapshotTime&quot;).fill_null_with_strategy()) == (col(&quot;SnapshotTime&quot;).fill_null_with_strategy().max())]</text>
</g>
<!-- p1&#45;&#45;p9 -->
<g id="edge9" class="edge">
<title>p1--p9</title>
<path fill="none" stroke="black" d="M5231.56,-844.9C5268.13,-833.14 5310.52,-819.5 5343.1,-809.02"/>
</g>
<!-- c0 -->
<g id="node3" class="node">
<title>c0</title>
<polygon fill="none" stroke="black" points="4998,-502 4866,-502 4866,-466 4998,-466 4998,-502"/>
<text text-anchor="middle" x="4932" y="-480.3" font-family="Times,serif" font-size="14.00">CACHE: 1 times</text>
</g>
<!-- p2&#45;&#45;c0 -->
<g id="edge2" class="edge">
<title>p2--c0</title>
<path fill="none" stroke="black" d="M4889.13,-692.13C4889.77,-660.77 4892.94,-592.89 4908,-538 4911.42,-525.53 4917.42,-512.28 4922.57,-502.15"/>
</g>
<!-- p3 -->
<g id="node4" class="node">
<title>p3</title>
<polygon fill="none" stroke="black" points="6529,-421.5 6151,-421.5 6151,-385.5 6529,-385.5 6529,-421.5"/>
<text text-anchor="middle" x="6340" y="-399.8" font-family="Times,serif" font-size="14.00">FILTER BY col(&quot;Name&quot;).str.contains([String(Visa)])</text>
</g>
<!-- c0&#45;&#45;p3 -->
<g id="edge3" class="edge">
<title>c0--p3</title>
<path fill="none" stroke="black" d="M4998.02,-479.32C5202.72,-467.91 5832.03,-432.82 6150.79,-415.05"/>
</g>
<!-- p17 -->
<g id="node18" class="node">
<title>p17</title>
<polygon fill="none" stroke="black" points="3708,-421.5 3330,-421.5 3330,-385.5 3708,-385.5 3708,-421.5"/>
<text text-anchor="middle" x="3519" y="-399.8" font-family="Times,serif" font-size="14.00">FILTER BY col(&quot;Name&quot;).str.contains([String(Visa)])</text>
</g>
<!-- c0&#45;&#45;p17 -->
<g id="edge18" class="edge">
<title>c0--p17</title>
<path fill="none" stroke="black" d="M4865.74,-479.32C4660.18,-467.9 4027.93,-432.77 3708.25,-415.01"/>
</g>
<!-- p4 -->
<g id="node5" class="node">
<title>p4</title>
<polygon fill="none" stroke="black" points="11266,-341 5642,-341 5642,-305 11266,-305 11266,-341"/>
<text text-anchor="middle" x="8454" y="-319.3" font-family="Times,serif" font-size="14.00">WITH COLUMNS [when([(col(&quot;__POLARS_CSER_0xaba69f25a38966b5&quot;).is_not_nan()) | (col(&quot;__POLARS_CSER_0xaba69f25a38966b5&quot;).is_null())]).then(col(&quot;__POLARS_CSER_0xaba69f25a38966b5&quot;)).otherwise(0.0).alias(&quot;SuccessRate&quot;), when([(col(&quot;Positives&quot;).min()) == (col(&quot;Positives&quot;).max())]).then(col(&quot;SnapshotTime&quot;).max()).otherwise(col(&quot;SnapshotTime&quot;).filter([(col(&quot;Positives&quot;).diff()) != (0.0)]).max()).over([col(&quot;ModelID&quot;)]).alias(&quot;Last_Positives&quot;), when([(col(&quot;ResponseCount&quot;).min()) == (col(&quot;ResponseCount&quot;).max())]).then(col(&quot;SnapshotTime&quot;).max()).otherwise(col(&quot;SnapshotTime&quot;).filter([(col(&quot;ResponseCount&quot;).diff()) != (0.0)]).max()).over([col(&quot;ModelID&quot;)]).alias(&quot;Last_ResponseCount&quot;), [(col(&quot;Positives&quot;)) / (col(&quot;ResponseCount&quot;))].alias(&quot;__POLARS_CSER_0xaba69f25a38966b5&quot;)]</text>
</g>
<!-- p3&#45;&#45;p4 -->
<g id="edge4" class="edge">
<title>p3--p4</title>
<path fill="none" stroke="black" d="M6529.46,-395.46C6857.12,-383.3 7538.39,-358 7996.02,-341.01"/>
</g>
<!-- p5 -->
<g id="node6" class="node">
<title>p5</title>
<polygon fill="none" stroke="black" points="10859,-269 6049,-269 6049,-233 10859,-233 10859,-269"/>
<text text-anchor="middle" x="8454" y="-247.3" font-family="Times,serif" font-size="14.00">WITH COLUMNS [col(&quot;Configuration&quot;).strict_cast(Categorical(None, Physical)), col(&quot;Positives&quot;).strict_cast(Float32), col(&quot;Group&quot;).strict_cast(Categorical(None, Physical)), when([(col(&quot;SnapshotTime&quot;).str.slice([dyn int: 4, dyn int: 1])) == (String(-))]).then(col(&quot;SnapshotTime&quot;).str.strptime([String(raise)]).dt.cast_time_unit()).otherwise(col(&quot;SnapshotTime&quot;).str.strptime([String(raise)]).dt.replace_time_zone([String(raise)]).dt.cast_time_unit()).alias(&quot;SnapshotTime&quot;), col(&quot;Direction&quot;).strict_cast(Categorical(None, Physical)), col(&quot;Issue&quot;).strict_cast(Categorical(None, Physical)), col(&quot;ResponseCount&quot;).strict_cast(Float32), col(&quot;Channel&quot;).strict_cast(Categorical(None, Physical))]</text>
</g>
<!-- p4&#45;&#45;p5 -->
<g id="edge5" class="edge">
<title>p4--p5</title>
<path fill="none" stroke="black" d="M8454,-304.7C8454,-293.85 8454,-279.92 8454,-269.1"/>
</g>
<!-- p6 -->
<g id="node7" class="node">
<title>p6</title>
<polygon fill="none" stroke="black" points="8489.5,-197 8418.5,-197 8418.5,-161 8489.5,-161 8489.5,-197"/>
<text text-anchor="middle" x="8454" y="-175.3" font-family="Times,serif" font-size="14.00">π 12/12</text>
</g>
<!-- p5&#45;&#45;p6 -->
<g id="edge6" class="edge">
<title>p5--p6</title>
<path fill="none" stroke="black" d="M8454,-232.7C8454,-221.85 8454,-207.92 8454,-197.1"/>
</g>
<!-- p7 -->
<g id="node8" class="node">
<title>p7</title>
<polygon fill="none" stroke="black" points="8496,-125 8412,-125 8412,-89 8496,-89 8496,-125"/>
<text text-anchor="middle" x="8454" y="-103.3" font-family="Times,serif" font-size="14.00">RENAME</text>
</g>
<!-- p6&#45;&#45;p7 -->
<g id="edge7" class="edge">
<title>p6--p7</title>
<path fill="none" stroke="black" d="M8454,-160.7C8454,-149.85 8454,-135.92 8454,-125.1"/>
</g>
<!-- p8 -->
<g id="node9" class="node">
<title>p8</title>
<polygon fill="none" stroke="black" points="8609.5,-53 8298.5,-53 8298.5,0 8609.5,0 8609.5,-53"/>
<text text-anchor="middle" x="8454" y="-37.8" font-family="Times,serif" font-size="14.00">TABLE</text>
<text text-anchor="middle" x="8454" y="-22.8" font-family="Times,serif" font-size="14.00">π 12/27;</text>
<text text-anchor="middle" x="8454" y="-7.8" font-family="Times,serif" font-size="14.00">σ col(&quot;Name&quot;).str.contains([String(Visa)])</text>
</g>
<!-- p7&#45;&#45;p8 -->
<g id="edge8" class="edge">
<title>p7--p8</title>
<path fill="none" stroke="black" d="M8454,-88.97C8454,-78.51 8454,-64.9 8454,-53.16"/>
</g>
<!-- p10 -->
<g id="node11" class="node">
<title>p10</title>
<polygon fill="none" stroke="black" points="5504,-737 5328,-737 5328,-684 5504,-684 5504,-737"/>
<text text-anchor="middle" x="5416" y="-721.8" font-family="Times,serif" font-size="14.00">JOIN INNER</text>
<text text-anchor="middle" x="5416" y="-706.8" font-family="Times,serif" font-size="14.00">left: [col(&quot;ModelID&quot;)];</text>
<text text-anchor="middle" x="5416" y="-691.8" font-family="Times,serif" font-size="14.00">right: [col(&quot;ModelID&quot;)]</text>
</g>
<!-- p9&#45;&#45;p10 -->
<g id="edge10" class="edge">
<title>p9--p10</title>
<path fill="none" stroke="black" d="M5400.34,-772.97C5403.01,-762.51 5406.47,-748.9 5409.46,-737.16"/>
</g>
<!-- p11 -->
<g id="node12" class="node">
<title>p11</title>
<polygon fill="none" stroke="black" points="9461.5,-648 5814.5,-648 5814.5,-612 9461.5,-612 9461.5,-648"/>
<text text-anchor="middle" x="7638" y="-626.3" font-family="Times,serif" font-size="14.00">WITH COLUMNS [[(col(&quot;BinPositives&quot;)) / (col(&quot;BinResponseCount&quot;))].alias(&quot;BinPropensity&quot;), [([(col(&quot;BinPositives&quot;)) + (0.5)]) / ([(col(&quot;BinResponseCount&quot;)) + (1.0)])].alias(&quot;BinAdjustedPropensity&quot;), when([(col(&quot;__POLARS_CSER_0xd76190681c6c72c8&quot;).list.length()) &gt; (1)]).then(col(&quot;__POLARS_CSER_0xd76190681c6c72c8&quot;).list.get([dyn int: 0])).otherwise(String(Primary)).alias(&quot;PredictorCategory&quot;), col(&quot;PredictorName&quot;).strict_cast(String).str.split([String(.)]).alias(&quot;__POLARS_CSER_0xd76190681c6c72c8&quot;)]</text>
</g>
<!-- p10&#45;&#45;p11 -->
<g id="edge11" class="edge">
<title>p10--p11</title>
<path fill="none" stroke="black" d="M5504.13,-706.39C5775.89,-696.79 6615.2,-667.13 7156.64,-648.01"/>
</g>
<!-- p15 -->
<g id="node16" class="node">
<title>p15</title>
<polygon fill="none" stroke="black" points="5222,-648 5168,-648 5168,-612 5222,-612 5222,-648"/>
<text text-anchor="middle" x="5195" y="-626.3" font-family="Times,serif" font-size="14.00">π 1/1</text>
</g>
<!-- p10&#45;&#45;p15 -->
<g id="edge15" class="edge">
<title>p10--p15</title>
<path fill="none" stroke="black" d="M5343.94,-683.9C5302.25,-669.1 5252.21,-651.32 5222.05,-640.61"/>
</g>
<!-- p12 -->
<g id="node13" class="node">
<title>p12</title>
<polygon fill="none" stroke="black" points="10935,-575 5049,-575 5049,-539 10935,-539 10935,-575"/>
<text text-anchor="middle" x="7992" y="-553.3" font-family="Times,serif" font-size="14.00">WITH COLUMNS [col(&quot;Positives&quot;).strict_cast(Float32), col(&quot;BinPositives&quot;).strict_cast(Float32), col(&quot;Type&quot;).strict_cast(Categorical(None, Physical)), when([(col(&quot;SnapshotTime&quot;).str.slice([dyn int: 4, dyn int: 1])) == (String(-))]).then(col(&quot;SnapshotTime&quot;).str.strptime([String(raise)]).dt.cast_time_unit()).otherwise(col(&quot;SnapshotTime&quot;).str.strptime([String(raise)]).dt.replace_time_zone([String(raise)]).dt.cast_time_unit()).alias(&quot;SnapshotTime&quot;), col(&quot;BinIndex&quot;).strict_cast(UInt16), col(&quot;ResponseCount&quot;).strict_cast(Float32), col(&quot;BinResponseCount&quot;).strict_cast(Float32), col(&quot;GroupIndex&quot;).strict_cast(UInt32), col(&quot;EntryType&quot;).strict_cast(Categorical(None, Physical)), col(&quot;PredictorName&quot;).strict_cast(Categorical(None, Physical)), col(&quot;BinNegatives&quot;).strict_cast(Float32), col(&quot;BinType&quot;).strict_cast(Categorical(None, Physical))]</text>
</g>
<!-- p11&#45;&#45;p12 -->
<g id="edge12" class="edge">
<title>p11--p12</title>
<path fill="none" stroke="black" d="M7722.79,-611.99C7778.53,-600.81 7851.2,-586.24 7906.98,-575.05"/>
</g>
<!-- p13 -->
<g id="node14" class="node">
<title>p13</title>
<polygon fill="none" stroke="black" points="8034,-502 7950,-502 7950,-466 8034,-466 8034,-502"/>
<text text-anchor="middle" x="7992" y="-480.3" font-family="Times,serif" font-size="14.00">RENAME</text>
</g>
<!-- p12&#45;&#45;p13 -->
<g id="edge13" class="edge">
<title>p12--p13</title>
<path fill="none" stroke="black" d="M7992,-538.81C7992,-527.65 7992,-513.16 7992,-502.03"/>
</g>
<!-- p14 -->
<g id="node15" class="node">
<title>p14</title>
<polygon fill="none" stroke="black" points="8029.5,-430 7954.5,-430 7954.5,-377 8029.5,-377 8029.5,-430"/>
<text text-anchor="middle" x="7992" y="-414.8" font-family="Times,serif" font-size="14.00">TABLE</text>
<text text-anchor="middle" x="7992" y="-399.8" font-family="Times,serif" font-size="14.00">π 16/36;</text>
<text text-anchor="middle" x="7992" y="-384.8" font-family="Times,serif" font-size="14.00">σ None</text>
</g>
<!-- p13&#45;&#45;p14 -->
<g id="edge14" class="edge">
<title>p13--p14</title>
<path fill="none" stroke="black" d="M7992,-465.97C7992,-455.51 7992,-441.9 7992,-430.16"/>
</g>
<!-- p16 -->
<g id="node17" class="node">
<title>p16</title>
<polygon fill="none" stroke="black" points="5030.5,-576 4917.5,-576 4917.5,-538 5030.5,-538 5030.5,-576"/>
<text text-anchor="middle" x="4974" y="-560.8" font-family="Times,serif" font-size="14.00">simple π 1/15</text>
<text text-anchor="middle" x="4974" y="-545.8" font-family="Times,serif" font-size="14.00">[&quot;ModelID&quot;]</text>
</g>
<!-- p15&#45;&#45;p16 -->
<g id="edge16" class="edge">
<title>p15--p16</title>
<path fill="none" stroke="black" d="M5167.9,-620.29C5133.78,-609.33 5074.31,-590.23 5030.2,-576.05"/>
</g>
<!-- p16&#45;&#45;c0 -->
<g id="edge17" class="edge">
<title>p16--c0</title>
<path fill="none" stroke="black" d="M4963.18,-537.72C4956.67,-526.7 4948.43,-512.78 4942.06,-502"/>
</g>
<!-- p18 -->
<g id="node19" class="node">
<title>p18</title>
<polygon fill="none" stroke="black" points="5624,-341 0,-341 0,-305 5624,-305 5624,-341"/>
<text text-anchor="middle" x="2812" y="-319.3" font-family="Times,serif" font-size="14.00">WITH COLUMNS [when([(col(&quot;__POLARS_CSER_0xaba69f25a38966b5&quot;).is_not_nan()) | (col(&quot;__POLARS_CSER_0xaba69f25a38966b5&quot;).is_null())]).then(col(&quot;__POLARS_CSER_0xaba69f25a38966b5&quot;)).otherwise(0.0).alias(&quot;SuccessRate&quot;), when([(col(&quot;Positives&quot;).min()) == (col(&quot;Positives&quot;).max())]).then(col(&quot;SnapshotTime&quot;).max()).otherwise(col(&quot;SnapshotTime&quot;).filter([(col(&quot;Positives&quot;).diff()) != (0.0)]).max()).over([col(&quot;ModelID&quot;)]).alias(&quot;Last_Positives&quot;), when([(col(&quot;ResponseCount&quot;).min()) == (col(&quot;ResponseCount&quot;).max())]).then(col(&quot;SnapshotTime&quot;).max()).otherwise(col(&quot;SnapshotTime&quot;).filter([(col(&quot;ResponseCount&quot;).diff()) != (0.0)]).max()).over([col(&quot;ModelID&quot;)]).alias(&quot;Last_ResponseCount&quot;), [(col(&quot;Positives&quot;)) / (col(&quot;ResponseCount&quot;))].alias(&quot;__POLARS_CSER_0xaba69f25a38966b5&quot;)]</text>
</g>
<!-- p17&#45;&#45;p18 -->
<g id="edge19" class="edge">
<title>p17--p18</title>
<path fill="none" stroke="black" d="M3365.59,-385.47C3247,-372.3 3083.62,-354.16 2965.11,-341"/>
</g>
<!-- p19 -->
<g id="node20" class="node">
<title>p19</title>
<polygon fill="none" stroke="black" points="5217,-269 407,-269 407,-233 5217,-233 5217,-269"/>
<text text-anchor="middle" x="2812" y="-247.3" font-family="Times,serif" font-size="14.00">WITH COLUMNS [col(&quot;Configuration&quot;).strict_cast(Categorical(None, Physical)), col(&quot;Positives&quot;).strict_cast(Float32), col(&quot;Group&quot;).strict_cast(Categorical(None, Physical)), when([(col(&quot;SnapshotTime&quot;).str.slice([dyn int: 4, dyn int: 1])) == (String(-))]).then(col(&quot;SnapshotTime&quot;).str.strptime([String(raise)]).dt.cast_time_unit()).otherwise(col(&quot;SnapshotTime&quot;).str.strptime([String(raise)]).dt.replace_time_zone([String(raise)]).dt.cast_time_unit()).alias(&quot;SnapshotTime&quot;), col(&quot;Direction&quot;).strict_cast(Categorical(None, Physical)), col(&quot;Issue&quot;).strict_cast(Categorical(None, Physical)), col(&quot;ResponseCount&quot;).strict_cast(Float32), col(&quot;Channel&quot;).strict_cast(Categorical(None, Physical))]</text>
</g>
<!-- p18&#45;&#45;p19 -->
<g id="edge20" class="edge">
<title>p18--p19</title>
<path fill="none" stroke="black" d="M2812,-304.7C2812,-293.85 2812,-279.92 2812,-269.1"/>
</g>
<!-- p20 -->
<g id="node21" class="node">
<title>p20</title>
<polygon fill="none" stroke="black" points="2847.5,-197 2776.5,-197 2776.5,-161 2847.5,-161 2847.5,-197"/>
<text text-anchor="middle" x="2812" y="-175.3" font-family="Times,serif" font-size="14.00">π 12/12</text>
</g>
<!-- p19&#45;&#45;p20 -->
<g id="edge21" class="edge">
<title>p19--p20</title>
<path fill="none" stroke="black" d="M2812,-232.7C2812,-221.85 2812,-207.92 2812,-197.1"/>
</g>
<!-- p21 -->
<g id="node22" class="node">
<title>p21</title>
<polygon fill="none" stroke="black" points="2854,-125 2770,-125 2770,-89 2854,-89 2854,-125"/>
<text text-anchor="middle" x="2812" y="-103.3" font-family="Times,serif" font-size="14.00">RENAME</text>
</g>
<!-- p20&#45;&#45;p21 -->
<g id="edge22" class="edge">
<title>p20--p21</title>
<path fill="none" stroke="black" d="M2812,-160.7C2812,-149.85 2812,-135.92 2812,-125.1"/>
</g>
<!-- p22 -->
<g id="node23" class="node">
<title>p22</title>
<polygon fill="none" stroke="black" points="2967.5,-53 2656.5,-53 2656.5,0 2967.5,0 2967.5,-53"/>
<text text-anchor="middle" x="2812" y="-37.8" font-family="Times,serif" font-size="14.00">TABLE</text>
<text text-anchor="middle" x="2812" y="-22.8" font-family="Times,serif" font-size="14.00">π 12/27;</text>
<text text-anchor="middle" x="2812" y="-7.8" font-family="Times,serif" font-size="14.00">σ col(&quot;Name&quot;).str.contains([String(Visa)])</text>
</g>
<!-- p21&#45;&#45;p22 -->
<g id="edge23" class="edge">
<title>p21--p22</title>
<path fill="none" stroke="black" d="M2812,-88.97C2812,-78.51 2812,-64.9 2812,-53.16"/>
</g>
</g>
</svg>