<?xml version="1.0" encoding="utf-8"?>
<!-- Generator: Adobe Illustrator 24.0.1, SVG Export Plug-In . SVG Version: 6.00 Build 0)  -->
<svg version="1.1" id="layer" xmlns="http://www.w3.org/2000/svg" xmlns:xlink="http://www.w3.org/1999/xlink" x="0px" y="0px"
	 viewBox="0 0 599.8 129.7" style="enable-background:new 0 0 599.8 129.7;" xml:space="preserve">
<style type="text/css">
	.st0{fill:#1F2555;}
	.st1{fill:#00A6A7;}
</style>
<g id="Symbols">
	<g id="Logo">
		<g id="pega_logo_horizontal_positive_rgb">
			<path id="Fill-1" class="st0" d="M263.2,32.7l-0.4-0.2c0,0-4.3-1.9-7.6,1.6l-0.4,0.4l6.8,3.3L263.2,32.7z M294.4,70.1
				c0,0-3,5.3-4.3,7.3s-5.5,3.2-9.1,1.5c-1.6-0.8-17.1-9.8-23-9.3c-29.9,2.6-38-9.7-39-10.8c-1-1.1-2.8-0.6-1.5,1.6
				c6.6,11.2,25.9,16.4,25.9,16.4c5.1,12.2,5.7,20.8,5.7,20.8c-5-3.9-10.4-7.2-16.2-9.9c-15.4-10.3-39.4-23.1-72.5-31.1
				c1.9-26.3,15.2-64.2,77.1-55.3c0,0,12.4,2,20.7,7.8c0,0-2,2.1-4.6,4.7s0.3,4.3,0.3,4.3L267,28.4c0.2,5.4,0.4,7,4.5,11.9
				s20,21.6,22.1,23.8C296.1,66.6,294.4,70.1,294.4,70.1z M151.6,18.9c-3.3,13.5-3,25.4-1.3,35.4c-3.1-0.6-6.3-1.2-9.5-1.7
				C73,41.6,52.5,75,60.4,102.1C38,110.5,16.9,120.2,0,129.7C26.6,65.8,84.5,9.6,133.3,2.3C149.2,0,153.7,10.4,151.6,18.9
				L151.6,18.9z"/>
			<path id="Fill-2" class="st1" d="M161,77.2c26.4-2.1,51.4,0.6,72,10.4c-15.4-10.3-39.4-23.1-72.5-31.1
				C159.8,65.7,160.5,73.4,161,77.2z M157.2,77.6c-29.6,2.8-64.6,12.4-96.8,24.5C52.5,75,72.9,41.6,140.8,52.6
				c3.3,0.5,6.4,1.1,9.5,1.7C151.9,63.8,154.8,71.7,157.2,77.6L157.2,77.6z"/>
			<path id="Fill-3" class="st0" d="M553.9,67.4l9.2-22.4l9.2,22.4H553.9z M556.3,26.8l-29.7,69.6h15.5l6.3-15.5h29.2l6.3,15.5h15.9
				l-29.6-69.6L556.3,26.8L556.3,26.8z M364.4,51.3c0,6-4.5,10.5-12.1,10.5h-12.1V40.5H352c7.7,0,12.4,3.7,12.4,10.5L364.4,51.3
				L364.4,51.3z M353.2,26.8h-28.4v69.6h15.3V75.5h11.6c15.6,0,28.2-8.4,28.2-24.5v-0.2C379.9,36.6,369.9,26.8,353.2,26.8z
				 M463.2,34.5c-7.3,7.1-11,16.2-11,26.8c0,10.7,3.6,19.6,10.8,26.7c7.2,7,16.2,10.5,26.8,10.5c12.6,0,22.4-3.8,29.2-11.3l0.4-0.4
				v-32h-30.3v12.9h15.8v13.1c-4.1,2.4-9.2,3.7-15.2,3.7c-6.2,0-11.6-2.1-15.9-6.3c-4.3-4.2-6.5-9.9-6.5-16.8c0-7,2.3-12.7,6.7-16.9
				c4.5-4.3,10.1-6.4,16.8-6.4c3.5,0,6.6,0.4,9.2,1.3c2.4,0.8,4.9,2.2,7.4,4.3l8.5-10.7c-4.5-3.9-12.5-9.1-25.9-9.1
				C479.5,23.8,470.5,27.4,463.2,34.5z M406.3,68.5h30V54.9h-30V40.4h37.3V26.8h-52.5v69.6h53V82.8h-37.8V68.5L406.3,68.5z"/>
		</g>
	</g>
</g>
</svg>
